<mxfile host="app.diagrams.net" modified="2021-05-27T10:00:05.664Z" agent="5.0 (Windows NT 10.0; Win64; x64) AppleWebKit/537.36 (KHTML, like Gecko) Chrome/90.0.4430.212 Safari/537.36" etag="EighSd5tPKLKbj3w5C7u" version="14.7.2" type="github">
  <diagram id="ewLvH-QtiE_fr5phJkBy" name="Page-1">
    <mxGraphModel dx="1292" dy="741" grid="1" gridSize="10" guides="1" tooltips="1" connect="1" arrows="1" fold="1" page="1" pageScale="1" pageWidth="827" pageHeight="1169" math="0" shadow="0">
      <root>
        <mxCell id="0" />
        <mxCell id="1" parent="0" />
        <mxCell id="dSfoqlyD_KClIyD69JGR-1" value="" style="rounded=0;whiteSpace=wrap;html=1;dashed=1;strokeColor=#FF3333;strokeWidth=2;" parent="1" vertex="1">
          <mxGeometry x="679.5" y="314" width="188" height="366" as="geometry" />
        </mxCell>
        <mxCell id="dSfoqlyD_KClIyD69JGR-2" value="" style="rounded=0;whiteSpace=wrap;html=1;strokeColor=#000000;strokeWidth=2;" parent="1" vertex="1">
          <mxGeometry x="687.5" y="340" width="169" height="90" as="geometry" />
        </mxCell>
        <mxCell id="dSfoqlyD_KClIyD69JGR-3" value="" style="rounded=1;whiteSpace=wrap;html=1;direction=west;arcSize=15;strokeWidth=2;" parent="1" vertex="1">
          <mxGeometry x="377.5" y="165" width="250" height="220" as="geometry" />
        </mxCell>
        <mxCell id="dSfoqlyD_KClIyD69JGR-4" value="" style="ellipse;whiteSpace=wrap;html=1;strokeWidth=2;strokeColor=#FF3333;" parent="1" vertex="1">
          <mxGeometry x="417.5" y="300" width="120" height="80" as="geometry" />
        </mxCell>
        <mxCell id="dSfoqlyD_KClIyD69JGR-5" value="" style="rounded=1;whiteSpace=wrap;html=1;direction=west;arcSize=15;strokeWidth=2;" parent="1" vertex="1">
          <mxGeometry x="377.5" y="457.5" width="250" height="220" as="geometry" />
        </mxCell>
        <mxCell id="dSfoqlyD_KClIyD69JGR-6" style="edgeStyle=orthogonalEdgeStyle;rounded=0;orthogonalLoop=1;jettySize=auto;html=1;exitX=0.5;exitY=1;exitDx=0;exitDy=0;endArrow=classic;endFill=1;strokeColor=#000000;strokeWidth=2;fillColor=#FFFFFF;" parent="1" source="dSfoqlyD_KClIyD69JGR-7" target="dSfoqlyD_KClIyD69JGR-225" edge="1">
          <mxGeometry relative="1" as="geometry">
            <mxPoint x="897.5" y="350" as="targetPoint" />
            <Array as="points">
              <mxPoint x="172.5" y="110" />
              <mxPoint x="887.5" y="110" />
              <mxPoint x="887.5" y="358" />
            </Array>
          </mxGeometry>
        </mxCell>
        <mxCell id="dSfoqlyD_KClIyD69JGR-7" value="" style="rounded=1;whiteSpace=wrap;html=1;direction=west;strokeWidth=2;" parent="1" vertex="1">
          <mxGeometry x="47.5" y="165" width="250" height="220" as="geometry" />
        </mxCell>
        <mxCell id="dSfoqlyD_KClIyD69JGR-8" value="" style="group;strokeWidth=2;" parent="1" vertex="1" connectable="0">
          <mxGeometry x="72.5" y="220" width="190" height="110" as="geometry" />
        </mxCell>
        <mxCell id="dSfoqlyD_KClIyD69JGR-9" value="" style="group;strokeWidth=2;" parent="dSfoqlyD_KClIyD69JGR-8" vertex="1" connectable="0">
          <mxGeometry x="40" width="150" height="20" as="geometry" />
        </mxCell>
        <mxCell id="dSfoqlyD_KClIyD69JGR-10" value="0.12" style="rounded=0;whiteSpace=wrap;html=1;strokeWidth=2;" parent="dSfoqlyD_KClIyD69JGR-9" vertex="1">
          <mxGeometry width="30" height="20" as="geometry" />
        </mxCell>
        <mxCell id="dSfoqlyD_KClIyD69JGR-11" value="0.23" style="rounded=0;whiteSpace=wrap;html=1;strokeWidth=2;" parent="dSfoqlyD_KClIyD69JGR-9" vertex="1">
          <mxGeometry x="30" width="30" height="20" as="geometry" />
        </mxCell>
        <mxCell id="dSfoqlyD_KClIyD69JGR-12" value="&lt;sup&gt;&lt;b&gt;&lt;font style=&quot;font-size: 14px&quot;&gt;...&lt;/font&gt;&lt;/b&gt;&lt;/sup&gt;" style="rounded=0;whiteSpace=wrap;html=1;strokeWidth=2;" parent="dSfoqlyD_KClIyD69JGR-9" vertex="1">
          <mxGeometry x="60" width="30" height="20" as="geometry" />
        </mxCell>
        <mxCell id="dSfoqlyD_KClIyD69JGR-13" value="0.01" style="rounded=0;whiteSpace=wrap;html=1;strokeWidth=2;" parent="dSfoqlyD_KClIyD69JGR-9" vertex="1">
          <mxGeometry x="90" width="30" height="20" as="geometry" />
        </mxCell>
        <mxCell id="dSfoqlyD_KClIyD69JGR-14" value="0.56" style="rounded=0;whiteSpace=wrap;html=1;strokeWidth=2;" parent="dSfoqlyD_KClIyD69JGR-9" vertex="1">
          <mxGeometry x="120" width="30" height="20" as="geometry" />
        </mxCell>
        <mxCell id="dSfoqlyD_KClIyD69JGR-15" value="" style="group;strokeWidth=2;" parent="dSfoqlyD_KClIyD69JGR-8" vertex="1" connectable="0">
          <mxGeometry x="40" y="40" width="150" height="20" as="geometry" />
        </mxCell>
        <mxCell id="dSfoqlyD_KClIyD69JGR-16" value="0.52" style="rounded=0;whiteSpace=wrap;html=1;strokeWidth=2;" parent="dSfoqlyD_KClIyD69JGR-15" vertex="1">
          <mxGeometry width="30" height="20" as="geometry" />
        </mxCell>
        <mxCell id="dSfoqlyD_KClIyD69JGR-17" value="0.26" style="rounded=0;whiteSpace=wrap;html=1;strokeWidth=2;" parent="dSfoqlyD_KClIyD69JGR-15" vertex="1">
          <mxGeometry x="30" width="30" height="20" as="geometry" />
        </mxCell>
        <mxCell id="dSfoqlyD_KClIyD69JGR-18" value="&lt;sup&gt;&lt;b&gt;&lt;font style=&quot;font-size: 14px&quot;&gt;...&lt;/font&gt;&lt;/b&gt;&lt;/sup&gt;" style="rounded=0;whiteSpace=wrap;html=1;strokeWidth=2;" parent="dSfoqlyD_KClIyD69JGR-15" vertex="1">
          <mxGeometry x="60" width="30" height="20" as="geometry" />
        </mxCell>
        <mxCell id="dSfoqlyD_KClIyD69JGR-19" value="0.18" style="rounded=0;whiteSpace=wrap;html=1;strokeWidth=2;" parent="dSfoqlyD_KClIyD69JGR-15" vertex="1">
          <mxGeometry x="90" width="30" height="20" as="geometry" />
        </mxCell>
        <mxCell id="dSfoqlyD_KClIyD69JGR-20" value="0.01" style="rounded=0;whiteSpace=wrap;html=1;strokeWidth=2;" parent="dSfoqlyD_KClIyD69JGR-15" vertex="1">
          <mxGeometry x="120" width="30" height="20" as="geometry" />
        </mxCell>
        <mxCell id="dSfoqlyD_KClIyD69JGR-21" value="" style="group;strokeWidth=2;" parent="dSfoqlyD_KClIyD69JGR-8" vertex="1" connectable="0">
          <mxGeometry x="40" y="90" width="150" height="20" as="geometry" />
        </mxCell>
        <mxCell id="dSfoqlyD_KClIyD69JGR-22" value="0.31" style="rounded=0;whiteSpace=wrap;html=1;strokeWidth=2;" parent="dSfoqlyD_KClIyD69JGR-21" vertex="1">
          <mxGeometry width="30" height="20" as="geometry" />
        </mxCell>
        <mxCell id="dSfoqlyD_KClIyD69JGR-23" value="0.23" style="rounded=0;whiteSpace=wrap;html=1;strokeWidth=2;" parent="dSfoqlyD_KClIyD69JGR-21" vertex="1">
          <mxGeometry x="30" width="30" height="20" as="geometry" />
        </mxCell>
        <mxCell id="dSfoqlyD_KClIyD69JGR-24" value="&lt;sup&gt;&lt;b&gt;&lt;font style=&quot;font-size: 14px&quot;&gt;...&lt;/font&gt;&lt;/b&gt;&lt;/sup&gt;" style="rounded=0;whiteSpace=wrap;html=1;strokeWidth=2;" parent="dSfoqlyD_KClIyD69JGR-21" vertex="1">
          <mxGeometry x="60" width="30" height="20" as="geometry" />
        </mxCell>
        <mxCell id="dSfoqlyD_KClIyD69JGR-25" value="0.14" style="rounded=0;whiteSpace=wrap;html=1;strokeWidth=2;" parent="dSfoqlyD_KClIyD69JGR-21" vertex="1">
          <mxGeometry x="90" width="30" height="20" as="geometry" />
        </mxCell>
        <mxCell id="dSfoqlyD_KClIyD69JGR-26" value="0.26" style="rounded=0;whiteSpace=wrap;html=1;strokeWidth=2;" parent="dSfoqlyD_KClIyD69JGR-21" vertex="1">
          <mxGeometry x="120" width="30" height="20" as="geometry" />
        </mxCell>
        <mxCell id="dSfoqlyD_KClIyD69JGR-27" value="&lt;b&gt;&lt;font style=&quot;font-size: 16px&quot;&gt;...&lt;/font&gt;&lt;/b&gt;" style="text;html=1;strokeColor=none;fillColor=none;align=center;verticalAlign=middle;whiteSpace=wrap;rounded=0;rotation=90;strokeWidth=2;" parent="dSfoqlyD_KClIyD69JGR-8" vertex="1">
          <mxGeometry x="100" y="70" width="40" height="20" as="geometry" />
        </mxCell>
        <mxCell id="dSfoqlyD_KClIyD69JGR-28" value="&lt;b style=&quot;font-size: 16px&quot;&gt;W&lt;sub&gt;1&lt;/sub&gt;&amp;nbsp;&lt;/b&gt;" style="text;html=1;strokeColor=none;fillColor=none;align=center;verticalAlign=middle;whiteSpace=wrap;rounded=0;strokeWidth=2;" parent="dSfoqlyD_KClIyD69JGR-8" vertex="1">
          <mxGeometry width="40" height="20" as="geometry" />
        </mxCell>
        <mxCell id="dSfoqlyD_KClIyD69JGR-29" value="&lt;b style=&quot;font-size: 16px&quot;&gt;W&lt;sub&gt;N&lt;/sub&gt;&amp;nbsp;&lt;/b&gt;" style="text;html=1;strokeColor=none;fillColor=none;align=center;verticalAlign=middle;whiteSpace=wrap;rounded=0;strokeWidth=2;" parent="dSfoqlyD_KClIyD69JGR-8" vertex="1">
          <mxGeometry y="90" width="40" height="20" as="geometry" />
        </mxCell>
        <mxCell id="dSfoqlyD_KClIyD69JGR-30" value="&lt;b style=&quot;font-size: 16px&quot;&gt;W&lt;sub&gt;i&lt;/sub&gt;&amp;nbsp;&lt;/b&gt;" style="text;html=1;strokeColor=none;fillColor=none;align=center;verticalAlign=middle;whiteSpace=wrap;rounded=0;strokeWidth=2;" parent="dSfoqlyD_KClIyD69JGR-8" vertex="1">
          <mxGeometry y="40" width="40" height="20" as="geometry" />
        </mxCell>
        <mxCell id="dSfoqlyD_KClIyD69JGR-31" value="&lt;span style=&quot;font-size: 16px&quot;&gt;&lt;b&gt;二进制编码&lt;/b&gt;&lt;/span&gt;" style="text;html=1;strokeColor=none;fillColor=none;align=center;verticalAlign=middle;whiteSpace=wrap;rounded=0;" parent="1" vertex="1">
          <mxGeometry x="192.5" y="400" width="85" height="20" as="geometry" />
        </mxCell>
        <mxCell id="dSfoqlyD_KClIyD69JGR-32" value="" style="rounded=1;whiteSpace=wrap;html=1;direction=west;strokeWidth=2;" parent="1" vertex="1">
          <mxGeometry x="47.5" y="460" width="250" height="220" as="geometry" />
        </mxCell>
        <mxCell id="dSfoqlyD_KClIyD69JGR-33" value="" style="group;strokeWidth=2;" parent="1" vertex="1" connectable="0">
          <mxGeometry x="107.5" y="485" width="25" height="30" as="geometry" />
        </mxCell>
        <mxCell id="dSfoqlyD_KClIyD69JGR-34" style="edgeStyle=none;rounded=0;orthogonalLoop=1;jettySize=auto;html=1;startArrow=none;startFill=0;strokeWidth=2;" parent="dSfoqlyD_KClIyD69JGR-33" source="dSfoqlyD_KClIyD69JGR-35" edge="1">
          <mxGeometry relative="1" as="geometry">
            <mxPoint y="30" as="targetPoint" />
          </mxGeometry>
        </mxCell>
        <mxCell id="dSfoqlyD_KClIyD69JGR-35" value="" style="ellipse;whiteSpace=wrap;html=1;aspect=fixed;strokeWidth=2;" parent="dSfoqlyD_KClIyD69JGR-33" vertex="1">
          <mxGeometry x="5" width="20" height="20" as="geometry" />
        </mxCell>
        <mxCell id="dSfoqlyD_KClIyD69JGR-36" value="" style="group;strokeWidth=2;" parent="1" vertex="1" connectable="0">
          <mxGeometry x="127.5" y="530" width="25" height="30" as="geometry" />
        </mxCell>
        <mxCell id="dSfoqlyD_KClIyD69JGR-37" style="edgeStyle=none;rounded=0;orthogonalLoop=1;jettySize=auto;html=1;startArrow=none;startFill=0;strokeWidth=2;" parent="dSfoqlyD_KClIyD69JGR-36" source="dSfoqlyD_KClIyD69JGR-38" edge="1">
          <mxGeometry relative="1" as="geometry">
            <mxPoint y="30" as="targetPoint" />
          </mxGeometry>
        </mxCell>
        <mxCell id="dSfoqlyD_KClIyD69JGR-38" value="" style="ellipse;whiteSpace=wrap;html=1;aspect=fixed;strokeWidth=2;" parent="dSfoqlyD_KClIyD69JGR-36" vertex="1">
          <mxGeometry x="5" width="20" height="20" as="geometry" />
        </mxCell>
        <mxCell id="dSfoqlyD_KClIyD69JGR-39" value="" style="group;strokeWidth=2;" parent="1" vertex="1" connectable="0">
          <mxGeometry x="192.5" y="550" width="25" height="30" as="geometry" />
        </mxCell>
        <mxCell id="dSfoqlyD_KClIyD69JGR-40" style="edgeStyle=none;rounded=0;orthogonalLoop=1;jettySize=auto;html=1;startArrow=none;startFill=0;strokeWidth=2;" parent="dSfoqlyD_KClIyD69JGR-39" source="dSfoqlyD_KClIyD69JGR-41" edge="1">
          <mxGeometry relative="1" as="geometry">
            <mxPoint y="30" as="targetPoint" />
          </mxGeometry>
        </mxCell>
        <mxCell id="dSfoqlyD_KClIyD69JGR-41" value="" style="ellipse;whiteSpace=wrap;html=1;aspect=fixed;strokeWidth=2;" parent="dSfoqlyD_KClIyD69JGR-39" vertex="1">
          <mxGeometry x="5" width="20" height="20" as="geometry" />
        </mxCell>
        <mxCell id="dSfoqlyD_KClIyD69JGR-42" value="" style="group;rotation=-90;strokeWidth=2;" parent="1" vertex="1" connectable="0">
          <mxGeometry x="192.5" y="625" width="25" height="30" as="geometry" />
        </mxCell>
        <mxCell id="dSfoqlyD_KClIyD69JGR-43" style="edgeStyle=none;rounded=0;orthogonalLoop=1;jettySize=auto;html=1;startArrow=none;startFill=0;strokeWidth=2;" parent="dSfoqlyD_KClIyD69JGR-42" source="dSfoqlyD_KClIyD69JGR-44" edge="1">
          <mxGeometry relative="1" as="geometry">
            <mxPoint x="28" y="28" as="targetPoint" />
          </mxGeometry>
        </mxCell>
        <mxCell id="dSfoqlyD_KClIyD69JGR-44" value="" style="ellipse;whiteSpace=wrap;html=1;aspect=fixed;rotation=-90;strokeWidth=2;" parent="dSfoqlyD_KClIyD69JGR-42" vertex="1">
          <mxGeometry x="-2" y="3" width="20" height="20" as="geometry" />
        </mxCell>
        <mxCell id="dSfoqlyD_KClIyD69JGR-45" value="" style="group;rotation=70;strokeWidth=2;" parent="1" vertex="1" connectable="0">
          <mxGeometry x="232.5" y="610" width="25" height="30" as="geometry" />
        </mxCell>
        <mxCell id="dSfoqlyD_KClIyD69JGR-46" style="edgeStyle=none;rounded=0;orthogonalLoop=1;jettySize=auto;html=1;startArrow=none;startFill=0;strokeWidth=2;" parent="dSfoqlyD_KClIyD69JGR-45" source="dSfoqlyD_KClIyD69JGR-47" edge="1">
          <mxGeometry relative="1" as="geometry">
            <mxPoint x="-6" y="8" as="targetPoint" />
          </mxGeometry>
        </mxCell>
        <mxCell id="dSfoqlyD_KClIyD69JGR-47" value="" style="ellipse;whiteSpace=wrap;html=1;aspect=fixed;rotation=70;strokeWidth=2;" parent="dSfoqlyD_KClIyD69JGR-45" vertex="1">
          <mxGeometry x="8" y="6" width="20" height="20" as="geometry" />
        </mxCell>
        <mxCell id="dSfoqlyD_KClIyD69JGR-48" value="" style="group;rotation=-15;strokeWidth=2;" parent="1" vertex="1" connectable="0">
          <mxGeometry x="232.5" y="530" width="25" height="30" as="geometry" />
        </mxCell>
        <mxCell id="dSfoqlyD_KClIyD69JGR-49" style="edgeStyle=none;rounded=0;orthogonalLoop=1;jettySize=auto;html=1;startArrow=none;startFill=0;strokeWidth=2;" parent="dSfoqlyD_KClIyD69JGR-48" source="dSfoqlyD_KClIyD69JGR-50" edge="1">
          <mxGeometry relative="1" as="geometry">
            <mxPoint x="4" y="33" as="targetPoint" />
          </mxGeometry>
        </mxCell>
        <mxCell id="dSfoqlyD_KClIyD69JGR-50" value="" style="ellipse;whiteSpace=wrap;html=1;aspect=fixed;rotation=-15;strokeWidth=2;" parent="dSfoqlyD_KClIyD69JGR-48" vertex="1">
          <mxGeometry x="4" width="20" height="20" as="geometry" />
        </mxCell>
        <mxCell id="dSfoqlyD_KClIyD69JGR-51" value="" style="group;rotation=-75;strokeWidth=2;" parent="1" vertex="1" connectable="0">
          <mxGeometry x="232.5" y="480" width="25" height="30" as="geometry" />
        </mxCell>
        <mxCell id="dSfoqlyD_KClIyD69JGR-52" style="edgeStyle=none;rounded=0;orthogonalLoop=1;jettySize=auto;html=1;startArrow=none;startFill=0;strokeWidth=2;" parent="dSfoqlyD_KClIyD69JGR-51" source="dSfoqlyD_KClIyD69JGR-53" edge="1">
          <mxGeometry relative="1" as="geometry">
            <mxPoint x="24" y="31" as="targetPoint" />
          </mxGeometry>
        </mxCell>
        <mxCell id="dSfoqlyD_KClIyD69JGR-53" value="" style="ellipse;whiteSpace=wrap;html=1;aspect=fixed;rotation=-75;strokeWidth=2;" parent="dSfoqlyD_KClIyD69JGR-51" vertex="1">
          <mxGeometry x="-2" y="1" width="20" height="20" as="geometry" />
        </mxCell>
        <mxCell id="dSfoqlyD_KClIyD69JGR-54" value="&lt;font style=&quot;font-size: 16px&quot;&gt;&lt;b style=&quot;font-size: 23px&quot;&gt;...&lt;/b&gt;&lt;/font&gt;" style="text;html=1;strokeColor=none;fillColor=none;align=center;verticalAlign=middle;whiteSpace=wrap;rounded=0;strokeWidth=2;" parent="1" vertex="1">
          <mxGeometry x="80" y="625" width="40" height="20" as="geometry" />
        </mxCell>
        <mxCell id="dSfoqlyD_KClIyD69JGR-55" value="&lt;font style=&quot;font-size: 16px&quot;&gt;&lt;b style=&quot;font-size: 23px&quot;&gt;...&lt;/b&gt;&lt;/font&gt;" style="text;html=1;strokeColor=none;fillColor=none;align=center;verticalAlign=middle;whiteSpace=wrap;rounded=0;rotation=-90;strokeWidth=2;" parent="1" vertex="1">
          <mxGeometry x="67.5" y="515" width="40" height="95" as="geometry" />
        </mxCell>
        <mxCell id="dSfoqlyD_KClIyD69JGR-56" value="&lt;b style=&quot;font-size: 16px&quot;&gt;W&lt;sub&gt;1&lt;/sub&gt;&lt;sup&gt;B&lt;/sup&gt;&amp;nbsp;&lt;/b&gt;" style="text;html=1;strokeColor=none;fillColor=none;align=center;verticalAlign=middle;whiteSpace=wrap;rounded=0;strokeWidth=2;" parent="1" vertex="1">
          <mxGeometry x="67.5" y="490" width="40" height="20" as="geometry" />
        </mxCell>
        <mxCell id="dSfoqlyD_KClIyD69JGR-57" value="&lt;b style=&quot;font-size: 16px&quot;&gt;W&lt;sub&gt;i&lt;/sub&gt;&lt;sup&gt;B&lt;/sup&gt;&amp;nbsp;&lt;/b&gt;" style="text;html=1;strokeColor=none;fillColor=none;align=center;verticalAlign=middle;whiteSpace=wrap;rounded=0;strokeWidth=2;" parent="1" vertex="1">
          <mxGeometry x="137.5" y="510" width="40" height="20" as="geometry" />
        </mxCell>
        <mxCell id="dSfoqlyD_KClIyD69JGR-58" value="&lt;b style=&quot;font-size: 16px&quot;&gt;W&lt;sub&gt;N&lt;/sub&gt;&lt;sup&gt;B&lt;/sup&gt;&amp;nbsp;&lt;/b&gt;" style="text;html=1;strokeColor=none;fillColor=none;align=center;verticalAlign=middle;whiteSpace=wrap;rounded=0;strokeWidth=2;" parent="1" vertex="1">
          <mxGeometry x="232.5" y="640" width="40" height="20" as="geometry" />
        </mxCell>
        <mxCell id="dSfoqlyD_KClIyD69JGR-59" value="" style="shape=flexArrow;endArrow=classic;html=1;strokeWidth=2;" parent="1" edge="1">
          <mxGeometry width="50" height="50" relative="1" as="geometry">
            <mxPoint x="307.5" y="558.82" as="sourcePoint" />
            <mxPoint x="377.5" y="558.82" as="targetPoint" />
          </mxGeometry>
        </mxCell>
        <mxCell id="dSfoqlyD_KClIyD69JGR-60" value="&lt;font style=&quot;font-size: 16px&quot;&gt;&lt;b&gt;分组竞争选择&lt;/b&gt;&lt;/font&gt;" style="text;html=1;strokeColor=none;fillColor=none;align=center;verticalAlign=middle;whiteSpace=wrap;rounded=0;" parent="1" vertex="1">
          <mxGeometry x="307.5" y="590" width="70" height="20" as="geometry" />
        </mxCell>
        <mxCell id="dSfoqlyD_KClIyD69JGR-61" value="" style="ellipse;whiteSpace=wrap;html=1;rotation=-60;strokeColor=#00994D;strokeWidth=2;" parent="1" vertex="1">
          <mxGeometry x="387.5" y="580" width="90" height="55" as="geometry" />
        </mxCell>
        <mxCell id="dSfoqlyD_KClIyD69JGR-62" value="" style="ellipse;whiteSpace=wrap;html=1;rotation=-125;strokeColor=#00994D;strokeWidth=2;" parent="1" vertex="1">
          <mxGeometry x="457.5" y="505" width="90" height="55" as="geometry" />
        </mxCell>
        <mxCell id="dSfoqlyD_KClIyD69JGR-63" value="" style="ellipse;whiteSpace=wrap;html=1;rotation=-60;strokeColor=#00994D;strokeWidth=2;" parent="1" vertex="1">
          <mxGeometry x="527.5" y="585" width="90" height="55" as="geometry" />
        </mxCell>
        <mxCell id="dSfoqlyD_KClIyD69JGR-64" value="&lt;font style=&quot;font-size: 16px&quot;&gt;&lt;b&gt;Grp&lt;sub&gt;1&lt;/sub&gt;&lt;/b&gt;&lt;/font&gt;" style="text;html=1;strokeColor=none;fillColor=none;align=center;verticalAlign=middle;whiteSpace=wrap;rounded=0;strokeWidth=2;" parent="1" vertex="1">
          <mxGeometry x="397.5" y="547.5" width="40" height="20" as="geometry" />
        </mxCell>
        <mxCell id="dSfoqlyD_KClIyD69JGR-65" value="&lt;font style=&quot;font-size: 16px&quot;&gt;&lt;b&gt;Grp&lt;sub&gt;i&lt;/sub&gt;&lt;/b&gt;&lt;/font&gt;" style="text;html=1;strokeColor=none;fillColor=none;align=center;verticalAlign=middle;whiteSpace=wrap;rounded=0;strokeWidth=2;" parent="1" vertex="1">
          <mxGeometry x="487.5" y="470" width="40" height="20" as="geometry" />
        </mxCell>
        <mxCell id="dSfoqlyD_KClIyD69JGR-66" value="&lt;font style=&quot;font-size: 16px&quot;&gt;&lt;b&gt;Grp&lt;sub&gt;M&lt;/sub&gt;&lt;/b&gt;&lt;/font&gt;" style="text;html=1;strokeColor=none;fillColor=none;align=center;verticalAlign=middle;whiteSpace=wrap;rounded=0;strokeWidth=2;" parent="1" vertex="1">
          <mxGeometry x="577.5" y="547.5" width="40" height="20" as="geometry" />
        </mxCell>
        <mxCell id="dSfoqlyD_KClIyD69JGR-67" value="" style="group;rotation=75;strokeWidth=2;" parent="1" vertex="1" connectable="0">
          <mxGeometry x="137.5" y="625" width="25" height="30" as="geometry" />
        </mxCell>
        <mxCell id="dSfoqlyD_KClIyD69JGR-68" style="edgeStyle=none;rounded=0;orthogonalLoop=1;jettySize=auto;html=1;startArrow=none;startFill=0;strokeWidth=2;" parent="dSfoqlyD_KClIyD69JGR-67" source="dSfoqlyD_KClIyD69JGR-69" edge="1">
          <mxGeometry relative="1" as="geometry">
            <mxPoint x="-5" y="7" as="targetPoint" />
          </mxGeometry>
        </mxCell>
        <mxCell id="dSfoqlyD_KClIyD69JGR-69" value="" style="ellipse;whiteSpace=wrap;html=1;aspect=fixed;rotation=75;strokeWidth=2;" parent="dSfoqlyD_KClIyD69JGR-67" vertex="1">
          <mxGeometry x="8" y="6" width="20" height="20" as="geometry" />
        </mxCell>
        <mxCell id="dSfoqlyD_KClIyD69JGR-70" value="" style="group;rotation=75;strokeWidth=2;" parent="1" vertex="1" connectable="0">
          <mxGeometry x="409.28" y="610" width="28.22" height="30" as="geometry" />
        </mxCell>
        <mxCell id="dSfoqlyD_KClIyD69JGR-71" style="edgeStyle=none;rounded=0;orthogonalLoop=1;jettySize=auto;html=1;startArrow=none;startFill=0;strokeWidth=2;strokeColor=#FF0000;" parent="dSfoqlyD_KClIyD69JGR-70" source="dSfoqlyD_KClIyD69JGR-72" edge="1">
          <mxGeometry relative="1" as="geometry">
            <mxPoint x="-5" y="7" as="targetPoint" />
          </mxGeometry>
        </mxCell>
        <mxCell id="dSfoqlyD_KClIyD69JGR-72" value="" style="ellipse;whiteSpace=wrap;html=1;aspect=fixed;rotation=75;strokeColor=#FF0000;strokeWidth=2;" parent="dSfoqlyD_KClIyD69JGR-70" vertex="1">
          <mxGeometry x="9.98" y="7.52" width="18.22" height="18.22" as="geometry" />
        </mxCell>
        <mxCell id="dSfoqlyD_KClIyD69JGR-73" value="&lt;font style=&quot;font-size: 16px&quot;&gt;&lt;b style=&quot;font-size: 23px&quot;&gt;...&lt;/b&gt;&lt;/font&gt;" style="text;html=1;strokeColor=none;fillColor=none;align=center;verticalAlign=middle;whiteSpace=wrap;rounded=0;rotation=-90;strokeWidth=2;" parent="1" vertex="1">
          <mxGeometry x="397.5" y="552.5" width="40" height="95" as="geometry" />
        </mxCell>
        <mxCell id="dSfoqlyD_KClIyD69JGR-74" value="" style="group;strokeWidth=2;" parent="1" vertex="1" connectable="0">
          <mxGeometry x="437.5" y="585" width="25" height="30" as="geometry" />
        </mxCell>
        <mxCell id="dSfoqlyD_KClIyD69JGR-75" style="edgeStyle=none;rounded=0;orthogonalLoop=1;jettySize=auto;html=1;startArrow=none;startFill=0;strokeWidth=2;" parent="dSfoqlyD_KClIyD69JGR-74" source="dSfoqlyD_KClIyD69JGR-76" edge="1">
          <mxGeometry relative="1" as="geometry">
            <mxPoint y="30" as="targetPoint" />
          </mxGeometry>
        </mxCell>
        <mxCell id="dSfoqlyD_KClIyD69JGR-76" value="" style="ellipse;whiteSpace=wrap;html=1;aspect=fixed;strokeWidth=2;" parent="dSfoqlyD_KClIyD69JGR-74" vertex="1">
          <mxGeometry x="5" width="20" height="20" as="geometry" />
        </mxCell>
        <mxCell id="dSfoqlyD_KClIyD69JGR-77" value="" style="group;rotation=-45;strokeWidth=2;" parent="1" vertex="1" connectable="0">
          <mxGeometry x="577.5" y="580" width="25" height="30" as="geometry" />
        </mxCell>
        <mxCell id="dSfoqlyD_KClIyD69JGR-78" style="edgeStyle=none;rounded=0;orthogonalLoop=1;jettySize=auto;html=1;startArrow=none;startFill=0;strokeWidth=2;" parent="dSfoqlyD_KClIyD69JGR-77" source="dSfoqlyD_KClIyD69JGR-79" edge="1">
          <mxGeometry relative="1" as="geometry">
            <mxPoint x="14" y="34" as="targetPoint" />
          </mxGeometry>
        </mxCell>
        <mxCell id="dSfoqlyD_KClIyD69JGR-79" value="" style="ellipse;whiteSpace=wrap;html=1;aspect=fixed;rotation=-45;strokeWidth=2;" parent="dSfoqlyD_KClIyD69JGR-77" vertex="1">
          <mxGeometry x="1" width="20" height="20" as="geometry" />
        </mxCell>
        <mxCell id="dSfoqlyD_KClIyD69JGR-80" value="&lt;font style=&quot;font-size: 16px&quot;&gt;&lt;b style=&quot;font-size: 23px&quot;&gt;...&lt;/b&gt;&lt;/font&gt;" style="text;html=1;strokeColor=none;fillColor=none;align=center;verticalAlign=middle;whiteSpace=wrap;rounded=0;rotation=-90;strokeWidth=2;" parent="1" vertex="1">
          <mxGeometry x="537.5" y="552.5" width="40" height="95" as="geometry" />
        </mxCell>
        <mxCell id="dSfoqlyD_KClIyD69JGR-81" value="" style="group;rotation=-15;labelBorderColor=none;noLabel=1;fontColor=none;strokeWidth=2;" parent="1" vertex="1" connectable="0">
          <mxGeometry x="552.5" y="615" width="25" height="30" as="geometry" />
        </mxCell>
        <mxCell id="dSfoqlyD_KClIyD69JGR-82" style="edgeStyle=none;rounded=0;orthogonalLoop=1;jettySize=auto;html=1;startArrow=none;startFill=0;strokeWidth=2;strokeColor=#FF0000;" parent="dSfoqlyD_KClIyD69JGR-81" source="dSfoqlyD_KClIyD69JGR-83" edge="1">
          <mxGeometry relative="1" as="geometry">
            <mxPoint x="4" y="33" as="targetPoint" />
          </mxGeometry>
        </mxCell>
        <mxCell id="dSfoqlyD_KClIyD69JGR-83" value="" style="ellipse;whiteSpace=wrap;html=1;aspect=fixed;rotation=-15;strokeColor=#FF0000;strokeWidth=2;" parent="dSfoqlyD_KClIyD69JGR-81" vertex="1">
          <mxGeometry x="4" width="20" height="20" as="geometry" />
        </mxCell>
        <mxCell id="dSfoqlyD_KClIyD69JGR-84" value="" style="group;rotation=-55;strokeWidth=2;" parent="1" vertex="1" connectable="0">
          <mxGeometry x="477.5" y="500" width="25" height="30" as="geometry" />
        </mxCell>
        <mxCell id="dSfoqlyD_KClIyD69JGR-85" style="edgeStyle=none;rounded=0;orthogonalLoop=1;jettySize=auto;html=1;startArrow=none;startFill=0;strokeWidth=2;" parent="dSfoqlyD_KClIyD69JGR-84" source="dSfoqlyD_KClIyD69JGR-86" edge="1">
          <mxGeometry relative="1" as="geometry">
            <mxPoint x="18" y="34" as="targetPoint" />
          </mxGeometry>
        </mxCell>
        <mxCell id="dSfoqlyD_KClIyD69JGR-86" value="" style="ellipse;whiteSpace=wrap;html=1;aspect=fixed;rotation=-55;strokeWidth=2;" parent="dSfoqlyD_KClIyD69JGR-84" vertex="1">
          <mxGeometry width="20" height="20" as="geometry" />
        </mxCell>
        <mxCell id="dSfoqlyD_KClIyD69JGR-87" value="&lt;font style=&quot;font-size: 16px&quot;&gt;&lt;b style=&quot;font-size: 23px&quot;&gt;...&lt;/b&gt;&lt;/font&gt;" style="text;html=1;strokeColor=none;fillColor=none;align=center;verticalAlign=middle;whiteSpace=wrap;rounded=0;rotation=-90;strokeWidth=2;" parent="1" vertex="1">
          <mxGeometry x="482.5" y="480" width="40" height="95" as="geometry" />
        </mxCell>
        <mxCell id="dSfoqlyD_KClIyD69JGR-88" value="" style="group;rotation=-15;fillColor=#ffffff;strokeWidth=2;" parent="1" vertex="1" connectable="0">
          <mxGeometry x="502.5" y="537.5" width="25" height="30" as="geometry" />
        </mxCell>
        <mxCell id="dSfoqlyD_KClIyD69JGR-89" style="edgeStyle=none;rounded=0;orthogonalLoop=1;jettySize=auto;html=1;startArrow=none;startFill=0;strokeWidth=2;strokeColor=#FF0000;" parent="dSfoqlyD_KClIyD69JGR-88" source="dSfoqlyD_KClIyD69JGR-90" edge="1">
          <mxGeometry relative="1" as="geometry">
            <mxPoint x="4" y="33" as="targetPoint" />
          </mxGeometry>
        </mxCell>
        <mxCell id="dSfoqlyD_KClIyD69JGR-90" value="" style="ellipse;whiteSpace=wrap;html=1;aspect=fixed;rotation=-15;strokeColor=#FF0000;strokeWidth=2;" parent="dSfoqlyD_KClIyD69JGR-88" vertex="1">
          <mxGeometry x="4" width="20" height="20" as="geometry" />
        </mxCell>
        <mxCell id="dSfoqlyD_KClIyD69JGR-91" value="&lt;font style=&quot;font-size: 16px&quot;&gt;&lt;b style=&quot;font-size: 23px&quot;&gt;...&lt;/b&gt;&lt;/font&gt;" style="text;html=1;strokeColor=none;fillColor=none;align=center;verticalAlign=middle;whiteSpace=wrap;rounded=0;strokeWidth=2;" parent="1" vertex="1">
          <mxGeometry x="409.28" y="500" width="40" height="20" as="geometry" />
        </mxCell>
        <mxCell id="dSfoqlyD_KClIyD69JGR-92" value="&lt;font style=&quot;font-size: 16px&quot;&gt;&lt;b style=&quot;font-size: 23px&quot;&gt;...&lt;/b&gt;&lt;/font&gt;" style="text;html=1;strokeColor=none;fillColor=none;align=center;verticalAlign=middle;whiteSpace=wrap;rounded=0;rotation=-90;strokeWidth=2;" parent="1" vertex="1">
          <mxGeometry x="477.5" y="582.5" width="40" height="95" as="geometry" />
        </mxCell>
        <mxCell id="dSfoqlyD_KClIyD69JGR-93" value="" style="shape=flexArrow;endArrow=classic;html=1;fontColor=#000000;strokeWidth=2;" parent="1" edge="1">
          <mxGeometry width="50" height="50" relative="1" as="geometry">
            <mxPoint x="501.5" y="450" as="sourcePoint" />
            <mxPoint x="501.5" y="390" as="targetPoint" />
          </mxGeometry>
        </mxCell>
        <mxCell id="dSfoqlyD_KClIyD69JGR-94" value="" style="shape=flexArrow;endArrow=classic;html=1;fontColor=#000000;strokeColor=#000000;strokeWidth=2;" parent="1" edge="1">
          <mxGeometry width="50" height="50" relative="1" as="geometry">
            <mxPoint x="172" y="390" as="sourcePoint" />
            <mxPoint x="172" y="450" as="targetPoint" />
          </mxGeometry>
        </mxCell>
        <mxCell id="dSfoqlyD_KClIyD69JGR-95" value="&lt;span style=&quot;font-size: 16px&quot;&gt;&lt;b&gt;重构种群&lt;/b&gt;&lt;/span&gt;" style="text;html=1;strokeColor=none;fillColor=none;align=center;verticalAlign=middle;whiteSpace=wrap;rounded=0;" parent="1" vertex="1">
          <mxGeometry x="412.5" y="420" width="75" height="20" as="geometry" />
        </mxCell>
        <mxCell id="dSfoqlyD_KClIyD69JGR-96" value="" style="endArrow=none;html=1;fontColor=#000000;strokeColor=#000000;strokeWidth=2;exitX=1;exitY=0.5;exitDx=0;exitDy=0;" parent="1" source="dSfoqlyD_KClIyD69JGR-3" edge="1">
          <mxGeometry width="50" height="50" relative="1" as="geometry">
            <mxPoint x="447.5" y="310" as="sourcePoint" />
            <mxPoint x="627.5" y="275" as="targetPoint" />
          </mxGeometry>
        </mxCell>
        <mxCell id="dSfoqlyD_KClIyD69JGR-97" value="" style="group;rotation=-15;labelBorderColor=none;noLabel=1;fontColor=none;strokeWidth=2;" parent="1" vertex="1" connectable="0">
          <mxGeometry x="424.28" y="330" width="25" height="30" as="geometry" />
        </mxCell>
        <mxCell id="dSfoqlyD_KClIyD69JGR-98" style="edgeStyle=none;rounded=0;orthogonalLoop=1;jettySize=auto;html=1;startArrow=none;startFill=0;strokeWidth=2;strokeColor=#FF0000;" parent="dSfoqlyD_KClIyD69JGR-97" source="dSfoqlyD_KClIyD69JGR-99" edge="1">
          <mxGeometry relative="1" as="geometry">
            <mxPoint x="4" y="33" as="targetPoint" />
          </mxGeometry>
        </mxCell>
        <mxCell id="dSfoqlyD_KClIyD69JGR-99" value="" style="ellipse;whiteSpace=wrap;html=1;aspect=fixed;rotation=-15;strokeColor=#FF0000;strokeWidth=2;" parent="dSfoqlyD_KClIyD69JGR-97" vertex="1">
          <mxGeometry x="4" width="20" height="20" as="geometry" />
        </mxCell>
        <mxCell id="dSfoqlyD_KClIyD69JGR-100" value="" style="group;rotation=-15;fillColor=#ffffff;strokeWidth=2;" parent="1" vertex="1" connectable="0">
          <mxGeometry x="577.5" y="330" width="25" height="30" as="geometry" />
        </mxCell>
        <mxCell id="dSfoqlyD_KClIyD69JGR-101" style="edgeStyle=none;rounded=0;orthogonalLoop=1;jettySize=auto;html=1;startArrow=none;startFill=0;strokeWidth=2;strokeColor=#FF0000;" parent="dSfoqlyD_KClIyD69JGR-100" source="dSfoqlyD_KClIyD69JGR-102" edge="1">
          <mxGeometry relative="1" as="geometry">
            <mxPoint x="4" y="33" as="targetPoint" />
          </mxGeometry>
        </mxCell>
        <mxCell id="dSfoqlyD_KClIyD69JGR-102" value="" style="ellipse;whiteSpace=wrap;html=1;aspect=fixed;rotation=-15;strokeColor=#FF0000;strokeWidth=2;" parent="dSfoqlyD_KClIyD69JGR-100" vertex="1">
          <mxGeometry x="4" width="20" height="20" as="geometry" />
        </mxCell>
        <mxCell id="dSfoqlyD_KClIyD69JGR-103" value="" style="group;rotation=45;fillColor=#ffffff;strokeWidth=2;" parent="1" vertex="1" connectable="0">
          <mxGeometry x="502.5" y="330" width="25" height="30" as="geometry" />
        </mxCell>
        <mxCell id="dSfoqlyD_KClIyD69JGR-104" style="edgeStyle=none;rounded=0;orthogonalLoop=1;jettySize=auto;html=1;startArrow=none;startFill=0;strokeWidth=2;strokeColor=#FF0000;" parent="dSfoqlyD_KClIyD69JGR-103" source="dSfoqlyD_KClIyD69JGR-105" edge="1">
          <mxGeometry relative="1" as="geometry">
            <mxPoint x="-7" y="17" as="targetPoint" />
          </mxGeometry>
        </mxCell>
        <mxCell id="dSfoqlyD_KClIyD69JGR-105" value="" style="ellipse;whiteSpace=wrap;html=1;aspect=fixed;rotation=45;strokeColor=#FF0000;strokeWidth=2;" parent="dSfoqlyD_KClIyD69JGR-103" vertex="1">
          <mxGeometry x="8" y="4" width="20" height="20" as="geometry" />
        </mxCell>
        <mxCell id="dSfoqlyD_KClIyD69JGR-106" value="&lt;b style=&quot;font-size: 16px&quot;&gt;&lt;font color=&quot;#ff0000&quot; style=&quot;font-size: 16px&quot;&gt;W&lt;sub&gt;1&lt;/sub&gt;&lt;sup&gt;B&lt;/sup&gt;&amp;nbsp;&lt;/font&gt;&lt;/b&gt;" style="text;html=1;strokeColor=none;fillColor=none;align=center;verticalAlign=middle;whiteSpace=wrap;rounded=0;strokeWidth=2;" parent="1" vertex="1">
          <mxGeometry x="384.28" y="355" width="40" height="20" as="geometry" />
        </mxCell>
        <mxCell id="dSfoqlyD_KClIyD69JGR-107" value="&lt;b style=&quot;font-size: 16px&quot;&gt;&lt;font color=&quot;#ff0000&quot; style=&quot;font-size: 16px&quot;&gt;Wi&lt;sup&gt;B&lt;/sup&gt;&amp;nbsp;&lt;/font&gt;&lt;/b&gt;" style="text;html=1;strokeColor=none;fillColor=none;align=center;verticalAlign=middle;whiteSpace=wrap;rounded=0;strokeWidth=2;" parent="1" vertex="1">
          <mxGeometry x="474.28" y="355" width="40" height="20" as="geometry" />
        </mxCell>
        <mxCell id="dSfoqlyD_KClIyD69JGR-108" value="&lt;b style=&quot;font-size: 16px&quot;&gt;&lt;font color=&quot;#ff0000&quot; style=&quot;font-size: 16px&quot;&gt;W&lt;sub&gt;M&lt;/sub&gt;&lt;sup&gt;B&lt;/sup&gt;&amp;nbsp;&lt;/font&gt;&lt;/b&gt;" style="text;html=1;strokeColor=none;fillColor=none;align=center;verticalAlign=middle;whiteSpace=wrap;rounded=0;strokeWidth=2;" parent="1" vertex="1">
          <mxGeometry x="587.5" y="355" width="40" height="20" as="geometry" />
        </mxCell>
        <mxCell id="dSfoqlyD_KClIyD69JGR-109" value="&lt;font style=&quot;font-size: 16px&quot;&gt;&lt;b style=&quot;font-size: 23px&quot;&gt;...&lt;/b&gt;&lt;/font&gt;" style="text;html=1;strokeColor=none;fillColor=none;align=center;verticalAlign=middle;whiteSpace=wrap;rounded=0;strokeWidth=2;" parent="1" vertex="1">
          <mxGeometry x="449.28" y="335" width="40" height="20" as="geometry" />
        </mxCell>
        <mxCell id="dSfoqlyD_KClIyD69JGR-110" value="&lt;font style=&quot;font-size: 16px&quot;&gt;&lt;b style=&quot;font-size: 23px&quot;&gt;...&lt;/b&gt;&lt;/font&gt;" style="text;html=1;strokeColor=none;fillColor=none;align=center;verticalAlign=middle;whiteSpace=wrap;rounded=0;strokeWidth=2;" parent="1" vertex="1">
          <mxGeometry x="537.5" y="330" width="40" height="20" as="geometry" />
        </mxCell>
        <mxCell id="dSfoqlyD_KClIyD69JGR-111" value="" style="ellipse;whiteSpace=wrap;html=1;aspect=fixed;labelBackgroundColor=#9933FF;fontColor=#000000;fillColor=none;dashed=1;strokeColor=#00994D;strokeWidth=2;" parent="1" vertex="1">
          <mxGeometry x="437.5" y="315" width="50" height="50" as="geometry" />
        </mxCell>
        <mxCell id="dSfoqlyD_KClIyD69JGR-112" value="&lt;font style=&quot;font-size: 16px&quot;&gt;&lt;b style=&quot;font-size: 23px&quot;&gt;...&lt;/b&gt;&lt;/font&gt;" style="text;html=1;strokeColor=none;fillColor=none;align=center;verticalAlign=middle;whiteSpace=wrap;rounded=0;strokeWidth=2;" parent="1" vertex="1">
          <mxGeometry x="449.28" y="540" width="40" height="20" as="geometry" />
        </mxCell>
        <mxCell id="dSfoqlyD_KClIyD69JGR-113" value="" style="ellipse;whiteSpace=wrap;html=1;aspect=fixed;labelBackgroundColor=#9933FF;fontColor=#000000;fillColor=none;dashed=1;strokeColor=#00994D;strokeWidth=2;" parent="1" vertex="1">
          <mxGeometry x="532.5" y="315" width="50" height="50" as="geometry" />
        </mxCell>
        <mxCell id="dSfoqlyD_KClIyD69JGR-114" style="edgeStyle=none;rounded=0;orthogonalLoop=1;jettySize=auto;html=1;exitX=1;exitY=1;exitDx=0;exitDy=0;entryX=0.002;entryY=0.403;entryDx=0;entryDy=0;entryPerimeter=0;strokeColor=#FF3333;strokeWidth=2;" parent="1" source="dSfoqlyD_KClIyD69JGR-115" target="dSfoqlyD_KClIyD69JGR-1" edge="1">
          <mxGeometry relative="1" as="geometry" />
        </mxCell>
        <mxCell id="dSfoqlyD_KClIyD69JGR-115" value="" style="ellipse;whiteSpace=wrap;html=1;aspect=fixed;labelBackgroundColor=#9933FF;fontColor=#000000;fillColor=none;dashed=1;strokeColor=#00994D;strokeWidth=2;" parent="1" vertex="1">
          <mxGeometry x="490" y="315" width="50" height="50" as="geometry" />
        </mxCell>
        <mxCell id="dSfoqlyD_KClIyD69JGR-116" value="" style="ellipse;whiteSpace=wrap;html=1;aspect=fixed;labelBackgroundColor=#9933FF;fontColor=#000000;fillColor=none;dashed=1;strokeColor=#00994D;strokeWidth=2;" parent="1" vertex="1">
          <mxGeometry x="465" y="285" width="50" height="50" as="geometry" />
        </mxCell>
        <mxCell id="dSfoqlyD_KClIyD69JGR-117" style="rounded=0;orthogonalLoop=1;jettySize=auto;html=1;entryX=0;entryY=0;entryDx=0;entryDy=0;strokeWidth=2;strokeColor=#FF0000;" parent="1" source="dSfoqlyD_KClIyD69JGR-4" target="dSfoqlyD_KClIyD69JGR-130" edge="1">
          <mxGeometry relative="1" as="geometry" />
        </mxCell>
        <mxCell id="dSfoqlyD_KClIyD69JGR-118" value="" style="ellipse;whiteSpace=wrap;html=1;aspect=fixed;labelBackgroundColor=#9933FF;fontColor=#000000;fillColor=none;dashed=1;strokeColor=#00994D;strokeWidth=2;" parent="1" vertex="1">
          <mxGeometry x="512.5" y="285" width="50" height="50" as="geometry" />
        </mxCell>
        <mxCell id="dSfoqlyD_KClIyD69JGR-119" value="&lt;span style=&quot;font-size: 16px&quot;&gt;&lt;b&gt;交叉&amp;amp;变异&lt;/b&gt;&lt;/span&gt;" style="text;html=1;strokeColor=none;fillColor=none;align=center;verticalAlign=middle;whiteSpace=wrap;rounded=0;strokeWidth=2;" parent="1" vertex="1">
          <mxGeometry x="384.28" y="280" width="90" height="20" as="geometry" />
        </mxCell>
        <mxCell id="dSfoqlyD_KClIyD69JGR-120" value="" style="shape=curlyBracket;whiteSpace=wrap;html=1;rounded=1;rotation=90;strokeWidth=2;" parent="1" vertex="1">
          <mxGeometry x="177.5" y="150" width="20" height="120" as="geometry" />
        </mxCell>
        <mxCell id="dSfoqlyD_KClIyD69JGR-121" value="&lt;span style=&quot;font-size: 16px&quot;&gt;&lt;b&gt;&lt;font style=&quot;vertical-align: inherit&quot;&gt;&lt;font style=&quot;vertical-align: inherit&quot;&gt;L&lt;/font&gt;&lt;/font&gt;&lt;/b&gt;&lt;/span&gt;" style="text;html=1;strokeColor=none;fillColor=none;align=center;verticalAlign=middle;whiteSpace=wrap;rounded=0;strokeWidth=2;" parent="1" vertex="1">
          <mxGeometry x="167.5" y="180" width="40" height="20" as="geometry" />
        </mxCell>
        <mxCell id="dSfoqlyD_KClIyD69JGR-122" value="" style="group;rotation=-30;strokeWidth=2;" parent="1" vertex="1" connectable="0">
          <mxGeometry x="137.5" y="575" width="25" height="30" as="geometry" />
        </mxCell>
        <mxCell id="dSfoqlyD_KClIyD69JGR-123" style="edgeStyle=none;rounded=0;orthogonalLoop=1;jettySize=auto;html=1;startArrow=none;startFill=0;strokeWidth=2;" parent="dSfoqlyD_KClIyD69JGR-122" source="dSfoqlyD_KClIyD69JGR-124" edge="1">
          <mxGeometry relative="1" as="geometry">
            <mxPoint x="9" y="34" as="targetPoint" />
          </mxGeometry>
        </mxCell>
        <mxCell id="dSfoqlyD_KClIyD69JGR-124" value="" style="ellipse;whiteSpace=wrap;html=1;aspect=fixed;rotation=-30;strokeWidth=2;" parent="dSfoqlyD_KClIyD69JGR-122" vertex="1">
          <mxGeometry x="2" y="-1" width="20" height="20" as="geometry" />
        </mxCell>
        <mxCell id="dSfoqlyD_KClIyD69JGR-125" value="" style="group;rotation=-30;strokeWidth=2;" parent="1" vertex="1" connectable="0">
          <mxGeometry x="432.5" y="210" width="25" height="30" as="geometry" />
        </mxCell>
        <mxCell id="dSfoqlyD_KClIyD69JGR-126" style="edgeStyle=none;rounded=0;orthogonalLoop=1;jettySize=auto;html=1;startArrow=none;startFill=0;strokeWidth=2;" parent="dSfoqlyD_KClIyD69JGR-125" source="dSfoqlyD_KClIyD69JGR-127" edge="1">
          <mxGeometry relative="1" as="geometry">
            <mxPoint x="9" y="34" as="targetPoint" />
          </mxGeometry>
        </mxCell>
        <mxCell id="dSfoqlyD_KClIyD69JGR-127" value="" style="ellipse;whiteSpace=wrap;html=1;aspect=fixed;rotation=-30;strokeWidth=2;" parent="dSfoqlyD_KClIyD69JGR-125" vertex="1">
          <mxGeometry x="2" y="-1" width="20" height="20" as="geometry" />
        </mxCell>
        <mxCell id="dSfoqlyD_KClIyD69JGR-128" value="" style="group;rotation=-180;strokeWidth=2;" parent="1" vertex="1" connectable="0">
          <mxGeometry x="502.5" y="200" width="25" height="30" as="geometry" />
        </mxCell>
        <mxCell id="dSfoqlyD_KClIyD69JGR-129" style="edgeStyle=none;rounded=0;orthogonalLoop=1;jettySize=auto;html=1;startArrow=none;startFill=0;strokeWidth=2;" parent="dSfoqlyD_KClIyD69JGR-128" source="dSfoqlyD_KClIyD69JGR-130" edge="1">
          <mxGeometry relative="1" as="geometry">
            <mxPoint x="26" y="1" as="targetPoint" />
          </mxGeometry>
        </mxCell>
        <mxCell id="dSfoqlyD_KClIyD69JGR-130" value="" style="ellipse;whiteSpace=wrap;html=1;aspect=fixed;rotation=-180;strokeWidth=2;" parent="dSfoqlyD_KClIyD69JGR-128" vertex="1">
          <mxGeometry y="11" width="20" height="20" as="geometry" />
        </mxCell>
        <mxCell id="dSfoqlyD_KClIyD69JGR-131" value="" style="group;rotation=0;strokeWidth=2;" parent="1" vertex="1" connectable="0">
          <mxGeometry x="552.5" y="210" width="25" height="30" as="geometry" />
        </mxCell>
        <mxCell id="dSfoqlyD_KClIyD69JGR-132" style="edgeStyle=none;rounded=0;orthogonalLoop=1;jettySize=auto;html=1;startArrow=none;startFill=0;strokeWidth=2;" parent="dSfoqlyD_KClIyD69JGR-131" source="dSfoqlyD_KClIyD69JGR-133" edge="1">
          <mxGeometry relative="1" as="geometry">
            <mxPoint y="30" as="targetPoint" />
          </mxGeometry>
        </mxCell>
        <mxCell id="dSfoqlyD_KClIyD69JGR-133" value="" style="ellipse;whiteSpace=wrap;html=1;aspect=fixed;rotation=0;strokeWidth=2;" parent="dSfoqlyD_KClIyD69JGR-131" vertex="1">
          <mxGeometry x="6" width="20" height="20" as="geometry" />
        </mxCell>
        <mxCell id="dSfoqlyD_KClIyD69JGR-134" value="" style="group;rotation=-90;strokeWidth=2;" parent="1" vertex="1" connectable="0">
          <mxGeometry x="405" y="230" width="25" height="30" as="geometry" />
        </mxCell>
        <mxCell id="dSfoqlyD_KClIyD69JGR-135" style="edgeStyle=none;rounded=0;orthogonalLoop=1;jettySize=auto;html=1;startArrow=none;startFill=0;strokeWidth=2;" parent="dSfoqlyD_KClIyD69JGR-134" source="dSfoqlyD_KClIyD69JGR-136" edge="1">
          <mxGeometry relative="1" as="geometry">
            <mxPoint x="27" y="28" as="targetPoint" />
          </mxGeometry>
        </mxCell>
        <mxCell id="dSfoqlyD_KClIyD69JGR-136" value="" style="ellipse;whiteSpace=wrap;html=1;aspect=fixed;rotation=-90;strokeWidth=2;" parent="dSfoqlyD_KClIyD69JGR-134" vertex="1">
          <mxGeometry x="-3" y="2" width="20" height="20" as="geometry" />
        </mxCell>
        <mxCell id="dSfoqlyD_KClIyD69JGR-137" value="&lt;font style=&quot;font-size: 16px&quot;&gt;&lt;b style=&quot;font-size: 23px&quot;&gt;...&lt;/b&gt;&lt;/font&gt;" style="text;html=1;strokeColor=none;fillColor=none;align=center;verticalAlign=middle;whiteSpace=wrap;rounded=0;strokeWidth=2;" parent="1" vertex="1">
          <mxGeometry x="457.5" y="180" width="40" height="20" as="geometry" />
        </mxCell>
        <mxCell id="dSfoqlyD_KClIyD69JGR-138" value="&lt;font style=&quot;font-size: 16px&quot;&gt;&lt;b style=&quot;font-size: 23px&quot;&gt;...&lt;/b&gt;&lt;/font&gt;" style="text;html=1;strokeColor=none;fillColor=none;align=center;verticalAlign=middle;whiteSpace=wrap;rounded=0;strokeWidth=2;" parent="1" vertex="1">
          <mxGeometry x="582.5" y="220" width="40" height="20" as="geometry" />
        </mxCell>
        <mxCell id="dSfoqlyD_KClIyD69JGR-139" value="&lt;span style=&quot;font-size: 16px&quot;&gt;&lt;b&gt;子代&lt;/b&gt;&lt;/span&gt;" style="text;html=1;strokeColor=none;fillColor=none;align=center;verticalAlign=middle;whiteSpace=wrap;rounded=0;strokeWidth=2;" parent="1" vertex="1">
          <mxGeometry x="382.5" y="180" width="75" height="20" as="geometry" />
        </mxCell>
        <mxCell id="dSfoqlyD_KClIyD69JGR-140" value="&lt;b&gt;W&lt;sub&gt;k&lt;/sub&gt;&lt;sup&gt;B&lt;/sup&gt;&amp;nbsp;&lt;/b&gt;" style="text;html=1;strokeColor=none;fillColor=none;align=center;verticalAlign=middle;whiteSpace=wrap;rounded=0;strokeWidth=2;" parent="1" vertex="1">
          <mxGeometry x="470" y="220" width="40" height="20" as="geometry" />
        </mxCell>
        <mxCell id="dSfoqlyD_KClIyD69JGR-141" value="" style="shape=flexArrow;endArrow=classic;html=1;fontColor=#000000;strokeColor=#000000;strokeWidth=2;" parent="1" edge="1">
          <mxGeometry width="50" height="50" relative="1" as="geometry">
            <mxPoint x="373.5" y="275" as="sourcePoint" />
            <mxPoint x="307.5" y="274.5" as="targetPoint" />
          </mxGeometry>
        </mxCell>
        <mxCell id="dSfoqlyD_KClIyD69JGR-142" value="&lt;span style=&quot;font-size: 16px&quot;&gt;&lt;b&gt;解码&lt;/b&gt;&lt;/span&gt;" style="text;html=1;strokeColor=none;fillColor=none;align=center;verticalAlign=middle;whiteSpace=wrap;rounded=0;" parent="1" vertex="1">
          <mxGeometry x="322.5" y="295" width="40" height="20" as="geometry" />
        </mxCell>
        <mxCell id="dSfoqlyD_KClIyD69JGR-143" value="&lt;span style=&quot;font-size: 16px&quot;&gt;&lt;b&gt;交叉变异细节&lt;/b&gt;&lt;/span&gt;" style="text;html=1;strokeColor=none;fillColor=none;align=center;verticalAlign=middle;whiteSpace=wrap;rounded=0;" parent="1" vertex="1">
          <mxGeometry x="722" y="285" width="103" height="20" as="geometry" />
        </mxCell>
        <mxCell id="dSfoqlyD_KClIyD69JGR-144" value="" style="shape=curlyBracket;whiteSpace=wrap;html=1;rounded=1;rotation=90;strokeWidth=2;" parent="1" vertex="1">
          <mxGeometry x="773.5" y="295" width="20" height="120" as="geometry" />
        </mxCell>
        <mxCell id="dSfoqlyD_KClIyD69JGR-145" value="&lt;b style=&quot;font-size: 16px&quot;&gt;W&lt;sub&gt;i&lt;/sub&gt;&lt;sup&gt;B&lt;/sup&gt;&amp;nbsp;&lt;/b&gt;" style="text;html=1;strokeColor=none;fillColor=none;align=center;verticalAlign=middle;whiteSpace=wrap;rounded=0;strokeWidth=2;" parent="1" vertex="1">
          <mxGeometry x="687.5" y="363" width="40" height="20" as="geometry" />
        </mxCell>
        <mxCell id="dSfoqlyD_KClIyD69JGR-146" value="" style="group" parent="1" vertex="1" connectable="0">
          <mxGeometry x="727.5" y="366" width="112" height="14" as="geometry" />
        </mxCell>
        <mxCell id="dSfoqlyD_KClIyD69JGR-147" value="&lt;b&gt;&lt;font style=&quot;font-size: 14px&quot;&gt;0&lt;/font&gt;&lt;/b&gt;" style="rounded=0;whiteSpace=wrap;html=1;strokeWidth=2;" parent="dSfoqlyD_KClIyD69JGR-146" vertex="1">
          <mxGeometry width="16" height="14" as="geometry" />
        </mxCell>
        <mxCell id="dSfoqlyD_KClIyD69JGR-148" value="&lt;b&gt;&lt;font style=&quot;font-size: 14px&quot;&gt;1&lt;/font&gt;&lt;/b&gt;" style="rounded=0;whiteSpace=wrap;html=1;strokeWidth=2;" parent="dSfoqlyD_KClIyD69JGR-146" vertex="1">
          <mxGeometry x="16" width="16" height="14" as="geometry" />
        </mxCell>
        <mxCell id="dSfoqlyD_KClIyD69JGR-149" value="&lt;b&gt;&lt;font size=&quot;1&quot;&gt;&lt;sup style=&quot;font-size: 13px&quot;&gt;...&lt;/sup&gt;&lt;/font&gt;&lt;/b&gt;" style="rounded=0;whiteSpace=wrap;html=1;strokeWidth=2;" parent="dSfoqlyD_KClIyD69JGR-146" vertex="1">
          <mxGeometry x="48" width="16" height="14" as="geometry" />
        </mxCell>
        <mxCell id="dSfoqlyD_KClIyD69JGR-150" value="&lt;b&gt;&lt;font style=&quot;font-size: 14px&quot;&gt;0&lt;/font&gt;&lt;/b&gt;" style="rounded=0;whiteSpace=wrap;html=1;strokeWidth=2;" parent="dSfoqlyD_KClIyD69JGR-146" vertex="1">
          <mxGeometry x="32" width="16" height="14" as="geometry" />
        </mxCell>
        <mxCell id="dSfoqlyD_KClIyD69JGR-151" value="&lt;b&gt;&lt;font style=&quot;font-size: 14px&quot;&gt;0&lt;/font&gt;&lt;/b&gt;" style="rounded=0;whiteSpace=wrap;html=1;strokeWidth=2;" parent="dSfoqlyD_KClIyD69JGR-146" vertex="1">
          <mxGeometry x="64" width="16" height="14" as="geometry" />
        </mxCell>
        <mxCell id="dSfoqlyD_KClIyD69JGR-152" value="&lt;b&gt;&lt;font style=&quot;font-size: 14px&quot;&gt;1&lt;/font&gt;&lt;/b&gt;" style="rounded=0;whiteSpace=wrap;html=1;strokeWidth=2;" parent="dSfoqlyD_KClIyD69JGR-146" vertex="1">
          <mxGeometry x="80" width="16" height="14" as="geometry" />
        </mxCell>
        <mxCell id="dSfoqlyD_KClIyD69JGR-153" value="&lt;b&gt;&lt;font style=&quot;font-size: 14px&quot;&gt;0&lt;/font&gt;&lt;/b&gt;" style="rounded=0;whiteSpace=wrap;html=1;strokeWidth=2;" parent="dSfoqlyD_KClIyD69JGR-146" vertex="1">
          <mxGeometry x="96" width="16" height="14" as="geometry" />
        </mxCell>
        <mxCell id="dSfoqlyD_KClIyD69JGR-154" value="&lt;b&gt;&lt;font style=&quot;font-size: 16px&quot;&gt;L*EncodeLength&lt;/font&gt;&lt;/b&gt;" style="text;html=1;strokeColor=none;fillColor=none;align=center;verticalAlign=middle;whiteSpace=wrap;rounded=0;" parent="1" vertex="1">
          <mxGeometry x="764.5" y="320" width="40" height="20" as="geometry" />
        </mxCell>
        <mxCell id="dSfoqlyD_KClIyD69JGR-155" value="" style="group" parent="1" vertex="1" connectable="0">
          <mxGeometry x="727.5" y="403" width="112" height="14" as="geometry" />
        </mxCell>
        <mxCell id="dSfoqlyD_KClIyD69JGR-156" value="&lt;b&gt;&lt;font style=&quot;font-size: 14px&quot;&gt;1&lt;/font&gt;&lt;/b&gt;" style="rounded=0;whiteSpace=wrap;html=1;strokeWidth=2;" parent="dSfoqlyD_KClIyD69JGR-155" vertex="1">
          <mxGeometry width="16" height="14" as="geometry" />
        </mxCell>
        <mxCell id="dSfoqlyD_KClIyD69JGR-157" value="&lt;b&gt;&lt;font style=&quot;font-size: 14px&quot;&gt;0&lt;/font&gt;&lt;/b&gt;" style="rounded=0;whiteSpace=wrap;html=1;strokeWidth=2;" parent="dSfoqlyD_KClIyD69JGR-155" vertex="1">
          <mxGeometry x="16" width="16" height="14" as="geometry" />
        </mxCell>
        <mxCell id="dSfoqlyD_KClIyD69JGR-158" value="&lt;b&gt;&lt;font size=&quot;1&quot;&gt;&lt;sup style=&quot;font-size: 13px&quot;&gt;...&lt;/sup&gt;&lt;/font&gt;&lt;/b&gt;" style="rounded=0;whiteSpace=wrap;html=1;strokeWidth=2;" parent="dSfoqlyD_KClIyD69JGR-155" vertex="1">
          <mxGeometry x="48" width="16" height="14" as="geometry" />
        </mxCell>
        <mxCell id="dSfoqlyD_KClIyD69JGR-159" value="&lt;b&gt;&lt;font style=&quot;font-size: 14px&quot;&gt;0&lt;/font&gt;&lt;/b&gt;" style="rounded=0;whiteSpace=wrap;html=1;strokeWidth=2;" parent="dSfoqlyD_KClIyD69JGR-155" vertex="1">
          <mxGeometry x="32" width="16" height="14" as="geometry" />
        </mxCell>
        <mxCell id="dSfoqlyD_KClIyD69JGR-160" value="&lt;b&gt;&lt;font style=&quot;font-size: 14px&quot;&gt;1&lt;/font&gt;&lt;/b&gt;" style="rounded=0;whiteSpace=wrap;html=1;strokeWidth=2;" parent="dSfoqlyD_KClIyD69JGR-155" vertex="1">
          <mxGeometry x="64" width="16" height="14" as="geometry" />
        </mxCell>
        <mxCell id="dSfoqlyD_KClIyD69JGR-161" value="&lt;b&gt;&lt;font style=&quot;font-size: 14px&quot;&gt;0&lt;/font&gt;&lt;/b&gt;" style="rounded=0;whiteSpace=wrap;html=1;strokeWidth=2;" parent="dSfoqlyD_KClIyD69JGR-155" vertex="1">
          <mxGeometry x="80" width="16" height="14" as="geometry" />
        </mxCell>
        <mxCell id="dSfoqlyD_KClIyD69JGR-162" value="&lt;b&gt;&lt;font style=&quot;font-size: 14px&quot;&gt;0&lt;/font&gt;&lt;/b&gt;" style="rounded=0;whiteSpace=wrap;html=1;strokeWidth=2;" parent="dSfoqlyD_KClIyD69JGR-155" vertex="1">
          <mxGeometry x="96" width="16" height="14" as="geometry" />
        </mxCell>
        <mxCell id="dSfoqlyD_KClIyD69JGR-163" value="&lt;b style=&quot;font-size: 16px&quot;&gt;W&lt;sub&gt;j&lt;/sub&gt;&lt;sup&gt;B&lt;/sup&gt;&amp;nbsp;&lt;/b&gt;" style="text;html=1;strokeColor=none;fillColor=none;align=center;verticalAlign=middle;whiteSpace=wrap;rounded=0;strokeWidth=2;" parent="1" vertex="1">
          <mxGeometry x="687.5" y="400" width="40" height="20" as="geometry" />
        </mxCell>
        <mxCell id="dSfoqlyD_KClIyD69JGR-164" value="" style="shape=flexArrow;endArrow=classic;html=1;strokeColor=#000000;strokeWidth=2;endWidth=7;endSize=4.37;" parent="1" edge="1">
          <mxGeometry width="50" height="50" relative="1" as="geometry">
            <mxPoint x="784" y="430" as="sourcePoint" />
            <mxPoint x="784" y="472.5" as="targetPoint" />
          </mxGeometry>
        </mxCell>
        <mxCell id="dSfoqlyD_KClIyD69JGR-165" value="&lt;span style=&quot;font-size: 16px&quot;&gt;&lt;b&gt;随机选择基因片段&lt;/b&gt;&lt;/span&gt;" style="text;html=1;strokeColor=none;fillColor=none;align=center;verticalAlign=middle;whiteSpace=wrap;rounded=0;" parent="1" vertex="1">
          <mxGeometry x="700.5" y="440" width="75" height="20" as="geometry" />
        </mxCell>
        <mxCell id="dSfoqlyD_KClIyD69JGR-166" value="" style="group" parent="1" vertex="1" connectable="0">
          <mxGeometry x="717.5" y="480" width="112" height="14" as="geometry" />
        </mxCell>
        <mxCell id="dSfoqlyD_KClIyD69JGR-167" value="&lt;b&gt;&lt;font style=&quot;font-size: 14px&quot;&gt;0&lt;/font&gt;&lt;/b&gt;" style="rounded=0;whiteSpace=wrap;html=1;strokeWidth=2;strokeColor=#FF0000;" parent="dSfoqlyD_KClIyD69JGR-166" vertex="1">
          <mxGeometry x="38" y="-4" width="16" height="14" as="geometry" />
        </mxCell>
        <mxCell id="dSfoqlyD_KClIyD69JGR-168" value="&lt;b&gt;&lt;font style=&quot;font-size: 14px&quot;&gt;0&lt;/font&gt;&lt;/b&gt;" style="rounded=0;whiteSpace=wrap;html=1;strokeWidth=2;" parent="dSfoqlyD_KClIyD69JGR-166" vertex="1">
          <mxGeometry x="78" y="-4" width="16" height="14" as="geometry" />
        </mxCell>
        <mxCell id="dSfoqlyD_KClIyD69JGR-169" value="&lt;b&gt;&lt;font style=&quot;font-size: 14px&quot;&gt;0&lt;/font&gt;&lt;/b&gt;" style="rounded=0;whiteSpace=wrap;html=1;strokeWidth=2;strokeColor=#FF0000;" parent="1" vertex="1">
          <mxGeometry x="715.5" y="476" width="16" height="14" as="geometry" />
        </mxCell>
        <mxCell id="dSfoqlyD_KClIyD69JGR-170" value="&lt;b&gt;&lt;font size=&quot;1&quot;&gt;&lt;sup style=&quot;font-size: 13px&quot;&gt;...&lt;/sup&gt;&lt;/font&gt;&lt;/b&gt;" style="rounded=0;whiteSpace=wrap;html=1;strokeWidth=2;" parent="1" vertex="1">
          <mxGeometry x="775.5" y="476" width="16" height="14" as="geometry" />
        </mxCell>
        <mxCell id="dSfoqlyD_KClIyD69JGR-171" value="&lt;b&gt;&lt;font style=&quot;font-size: 14px&quot;&gt;1&lt;/font&gt;&lt;/b&gt;" style="rounded=0;whiteSpace=wrap;html=1;strokeWidth=2;strokeColor=#FF0000;" parent="1" vertex="1">
          <mxGeometry x="815.5" y="476" width="16" height="14" as="geometry" />
        </mxCell>
        <mxCell id="dSfoqlyD_KClIyD69JGR-172" value="&lt;b&gt;&lt;font style=&quot;font-size: 14px&quot;&gt;0&lt;/font&gt;&lt;/b&gt;" style="rounded=0;whiteSpace=wrap;html=1;strokeWidth=2;" parent="1" vertex="1">
          <mxGeometry x="835.5" y="476" width="16" height="14" as="geometry" />
        </mxCell>
        <mxCell id="dSfoqlyD_KClIyD69JGR-173" value="&lt;b&gt;&lt;font style=&quot;font-size: 14px&quot;&gt;1&lt;/font&gt;&lt;/b&gt;" style="rounded=0;whiteSpace=wrap;html=1;strokeWidth=2;" parent="1" vertex="1">
          <mxGeometry x="715.5" y="506" width="16" height="14" as="geometry" />
        </mxCell>
        <mxCell id="dSfoqlyD_KClIyD69JGR-174" value="&lt;b&gt;&lt;font style=&quot;font-size: 14px&quot;&gt;0&lt;/font&gt;&lt;/b&gt;" style="rounded=0;whiteSpace=wrap;html=1;strokeWidth=2;strokeColor=#FF0000;" parent="1" vertex="1">
          <mxGeometry x="735.5" y="506" width="16" height="14" as="geometry" />
        </mxCell>
        <mxCell id="dSfoqlyD_KClIyD69JGR-175" value="&lt;b&gt;&lt;font size=&quot;1&quot;&gt;&lt;sup style=&quot;font-size: 13px&quot;&gt;...&lt;/sup&gt;&lt;/font&gt;&lt;/b&gt;" style="rounded=0;whiteSpace=wrap;html=1;strokeWidth=2;strokeColor=#FF0000;" parent="1" vertex="1">
          <mxGeometry x="775.5" y="506" width="16" height="14" as="geometry" />
        </mxCell>
        <mxCell id="dSfoqlyD_KClIyD69JGR-176" value="&lt;b&gt;&lt;font style=&quot;font-size: 14px&quot;&gt;0&lt;/font&gt;&lt;/b&gt;" style="rounded=0;whiteSpace=wrap;html=1;strokeWidth=2;" parent="1" vertex="1">
          <mxGeometry x="755.5" y="506" width="16" height="14" as="geometry" />
        </mxCell>
        <mxCell id="dSfoqlyD_KClIyD69JGR-177" value="&lt;b&gt;&lt;font style=&quot;font-size: 14px&quot;&gt;1&lt;/font&gt;&lt;/b&gt;" style="rounded=0;whiteSpace=wrap;html=1;strokeWidth=2;strokeColor=#FF0000;" parent="1" vertex="1">
          <mxGeometry x="795.5" y="506" width="16" height="14" as="geometry" />
        </mxCell>
        <mxCell id="dSfoqlyD_KClIyD69JGR-178" value="&lt;b&gt;&lt;font style=&quot;font-size: 14px&quot;&gt;0&lt;/font&gt;&lt;/b&gt;" style="rounded=0;whiteSpace=wrap;html=1;strokeWidth=2;" parent="1" vertex="1">
          <mxGeometry x="815.5" y="506" width="16" height="14" as="geometry" />
        </mxCell>
        <mxCell id="dSfoqlyD_KClIyD69JGR-179" value="&lt;b&gt;&lt;font style=&quot;font-size: 14px&quot;&gt;0&lt;/font&gt;&lt;/b&gt;" style="rounded=0;whiteSpace=wrap;html=1;strokeWidth=2;strokeColor=#FF0000;" parent="1" vertex="1">
          <mxGeometry x="835.5" y="506" width="16" height="14" as="geometry" />
        </mxCell>
        <mxCell id="dSfoqlyD_KClIyD69JGR-180" value="&lt;b&gt;&lt;font style=&quot;font-size: 14px&quot;&gt;1&lt;/font&gt;&lt;/b&gt;" style="rounded=0;whiteSpace=wrap;html=1;strokeWidth=2;" parent="1" vertex="1">
          <mxGeometry x="735.5" y="476" width="16" height="14" as="geometry" />
        </mxCell>
        <mxCell id="dSfoqlyD_KClIyD69JGR-181" value="" style="shape=flexArrow;endArrow=classic;html=1;strokeColor=#000000;strokeWidth=2;endWidth=7;endSize=4.37;" parent="1" edge="1">
          <mxGeometry width="50" height="50" relative="1" as="geometry">
            <mxPoint x="784.26" y="525" as="sourcePoint" />
            <mxPoint x="784.26" y="567.5" as="targetPoint" />
          </mxGeometry>
        </mxCell>
        <mxCell id="dSfoqlyD_KClIyD69JGR-182" value="&lt;span style=&quot;font-size: 16px&quot;&gt;&lt;b&gt;基因交叉重组&lt;/b&gt;&lt;/span&gt;" style="text;html=1;strokeColor=none;fillColor=none;align=center;verticalAlign=middle;whiteSpace=wrap;rounded=0;" parent="1" vertex="1">
          <mxGeometry x="706" y="537.5" width="75" height="20" as="geometry" />
        </mxCell>
        <mxCell id="dSfoqlyD_KClIyD69JGR-183" value="&lt;b&gt;&lt;font style=&quot;font-size: 14px&quot;&gt;0&lt;/font&gt;&lt;/b&gt;" style="rounded=0;whiteSpace=wrap;html=1;strokeWidth=2;strokeColor=#FF0000;" parent="1" vertex="1">
          <mxGeometry x="715.5" y="575" width="16" height="14" as="geometry" />
        </mxCell>
        <mxCell id="dSfoqlyD_KClIyD69JGR-184" value="&lt;b&gt;&lt;font style=&quot;font-size: 14px&quot;&gt;0&lt;/font&gt;&lt;/b&gt;" style="rounded=0;whiteSpace=wrap;html=1;strokeWidth=2;strokeColor=#FF0000;" parent="1" vertex="1">
          <mxGeometry x="735.5" y="575" width="16" height="14" as="geometry" />
        </mxCell>
        <mxCell id="dSfoqlyD_KClIyD69JGR-185" value="&lt;b&gt;&lt;font style=&quot;font-size: 14px&quot;&gt;0&lt;/font&gt;&lt;/b&gt;" style="rounded=0;whiteSpace=wrap;html=1;strokeWidth=2;strokeColor=#FF0000;" parent="1" vertex="1">
          <mxGeometry x="755.5" y="575" width="16" height="14" as="geometry" />
        </mxCell>
        <mxCell id="dSfoqlyD_KClIyD69JGR-186" value="&lt;b&gt;&lt;font size=&quot;1&quot;&gt;&lt;sup style=&quot;font-size: 13px&quot;&gt;...&lt;/sup&gt;&lt;/font&gt;&lt;/b&gt;" style="rounded=0;whiteSpace=wrap;html=1;strokeWidth=2;strokeColor=#FF0000;" parent="1" vertex="1">
          <mxGeometry x="775.5" y="575" width="16" height="14" as="geometry" />
        </mxCell>
        <mxCell id="dSfoqlyD_KClIyD69JGR-187" value="&lt;b&gt;&lt;font style=&quot;font-size: 14px&quot;&gt;1&lt;/font&gt;&lt;/b&gt;" style="rounded=0;whiteSpace=wrap;html=1;strokeWidth=2;strokeColor=#FF0000;" parent="1" vertex="1">
          <mxGeometry x="795.5" y="575" width="16" height="14" as="geometry" />
        </mxCell>
        <mxCell id="dSfoqlyD_KClIyD69JGR-188" value="&lt;b&gt;&lt;font style=&quot;font-size: 14px&quot;&gt;1&lt;/font&gt;&lt;/b&gt;" style="rounded=0;whiteSpace=wrap;html=1;strokeWidth=2;strokeColor=#FF0000;" parent="1" vertex="1">
          <mxGeometry x="815.5" y="575" width="16" height="14" as="geometry" />
        </mxCell>
        <mxCell id="dSfoqlyD_KClIyD69JGR-189" value="&lt;b&gt;&lt;font style=&quot;font-size: 14px&quot;&gt;0&lt;/font&gt;&lt;/b&gt;" style="rounded=0;whiteSpace=wrap;html=1;strokeWidth=2;strokeColor=#FF0000;" parent="1" vertex="1">
          <mxGeometry x="835.5" y="575" width="16" height="14" as="geometry" />
        </mxCell>
        <mxCell id="dSfoqlyD_KClIyD69JGR-190" value="" style="shape=flexArrow;endArrow=classic;html=1;strokeColor=#000000;strokeWidth=2;endWidth=7;endSize=4.37;" parent="1" edge="1">
          <mxGeometry width="50" height="50" relative="1" as="geometry">
            <mxPoint x="784.26" y="592.5" as="sourcePoint" />
            <mxPoint x="784.26" y="635" as="targetPoint" />
          </mxGeometry>
        </mxCell>
        <mxCell id="dSfoqlyD_KClIyD69JGR-191" value="&lt;b&gt;&lt;font style=&quot;font-size: 14px&quot;&gt;1&lt;/font&gt;&lt;/b&gt;" style="rounded=0;whiteSpace=wrap;html=1;strokeWidth=2;strokeColor=#FF0000;" parent="1" vertex="1">
          <mxGeometry x="716.5" y="640" width="16" height="14" as="geometry" />
        </mxCell>
        <mxCell id="dSfoqlyD_KClIyD69JGR-192" value="&lt;b&gt;&lt;font style=&quot;font-size: 14px&quot;&gt;0&lt;/font&gt;&lt;/b&gt;" style="rounded=0;whiteSpace=wrap;html=1;strokeWidth=2;strokeColor=#FF0000;" parent="1" vertex="1">
          <mxGeometry x="736.5" y="640" width="16" height="14" as="geometry" />
        </mxCell>
        <mxCell id="dSfoqlyD_KClIyD69JGR-193" value="&lt;b&gt;&lt;font style=&quot;font-size: 14px&quot;&gt;1&lt;/font&gt;&lt;/b&gt;" style="rounded=0;whiteSpace=wrap;html=1;strokeWidth=2;strokeColor=#FF0000;" parent="1" vertex="1">
          <mxGeometry x="756.5" y="640" width="16" height="14" as="geometry" />
        </mxCell>
        <mxCell id="dSfoqlyD_KClIyD69JGR-194" value="&lt;b&gt;&lt;font size=&quot;1&quot;&gt;&lt;sup style=&quot;font-size: 13px&quot;&gt;...&lt;/sup&gt;&lt;/font&gt;&lt;/b&gt;" style="rounded=0;whiteSpace=wrap;html=1;strokeWidth=2;strokeColor=#FF0000;" parent="1" vertex="1">
          <mxGeometry x="776.5" y="640" width="16" height="14" as="geometry" />
        </mxCell>
        <mxCell id="dSfoqlyD_KClIyD69JGR-195" value="&lt;b&gt;&lt;font style=&quot;font-size: 14px&quot;&gt;1&lt;/font&gt;&lt;/b&gt;" style="rounded=0;whiteSpace=wrap;html=1;strokeWidth=2;strokeColor=#FF0000;" parent="1" vertex="1">
          <mxGeometry x="796.5" y="640" width="16" height="14" as="geometry" />
        </mxCell>
        <mxCell id="dSfoqlyD_KClIyD69JGR-196" value="&lt;b&gt;&lt;font style=&quot;font-size: 14px&quot;&gt;1&lt;/font&gt;&lt;/b&gt;" style="rounded=0;whiteSpace=wrap;html=1;strokeWidth=2;strokeColor=#FF0000;" parent="1" vertex="1">
          <mxGeometry x="816.5" y="640" width="16" height="14" as="geometry" />
        </mxCell>
        <mxCell id="dSfoqlyD_KClIyD69JGR-197" value="&lt;b&gt;&lt;font style=&quot;font-size: 14px&quot;&gt;0&lt;/font&gt;&lt;/b&gt;" style="rounded=0;whiteSpace=wrap;html=1;strokeWidth=2;strokeColor=#FF0000;" parent="1" vertex="1">
          <mxGeometry x="836.5" y="640" width="16" height="14" as="geometry" />
        </mxCell>
        <mxCell id="dSfoqlyD_KClIyD69JGR-198" value="&lt;span style=&quot;font-size: 16px&quot;&gt;&lt;b&gt;随机变异&lt;/b&gt;&lt;/span&gt;" style="text;html=1;strokeColor=none;fillColor=none;align=center;verticalAlign=middle;whiteSpace=wrap;rounded=0;" parent="1" vertex="1">
          <mxGeometry x="707" y="597.5" width="75" height="20" as="geometry" />
        </mxCell>
        <mxCell id="dSfoqlyD_KClIyD69JGR-199" value="" style="curved=1;endArrow=none;html=1;strokeWidth=2;endFill=0;entryX=1;entryY=0;entryDx=0;entryDy=0;fillColor=#0050ef;strokeColor=#FF0000;" parent="1" target="dSfoqlyD_KClIyD69JGR-202" edge="1">
          <mxGeometry width="50" height="50" relative="1" as="geometry">
            <mxPoint x="994.5" y="120" as="sourcePoint" />
            <mxPoint x="1174.5" y="50" as="targetPoint" />
            <Array as="points">
              <mxPoint x="1024.5" y="110" />
              <mxPoint x="1064.5" y="110" />
              <mxPoint x="1054.5" y="100" />
              <mxPoint x="1084.5" y="100" />
              <mxPoint x="1104.5" y="110" />
              <mxPoint x="1154.5" y="100" />
              <mxPoint x="1174.5" y="100" />
              <mxPoint x="1204.5" y="120" />
              <mxPoint x="1204.5" y="100" />
              <mxPoint x="1214.5" y="110" />
              <mxPoint x="1244.5" y="100" />
              <mxPoint x="1264.5" y="90" />
              <mxPoint x="1314.5" y="110" />
              <mxPoint x="1354.5" y="90" />
              <mxPoint x="1384.5" y="110" />
              <mxPoint x="1404.5" y="100" />
            </Array>
          </mxGeometry>
        </mxCell>
        <mxCell id="dSfoqlyD_KClIyD69JGR-200" value="" style="group" parent="1" vertex="1" connectable="0">
          <mxGeometry x="944.5" y="90" width="505" height="222" as="geometry" />
        </mxCell>
        <mxCell id="dSfoqlyD_KClIyD69JGR-201" value="" style="rounded=0;whiteSpace=wrap;html=1;strokeWidth=2;fillColor=#FFFFFF;" parent="dSfoqlyD_KClIyD69JGR-200" vertex="1">
          <mxGeometry x="50" width="455" height="30" as="geometry" />
        </mxCell>
        <mxCell id="dSfoqlyD_KClIyD69JGR-202" value="" style="rounded=0;whiteSpace=wrap;html=1;strokeColor=#000000;strokeWidth=2;" parent="dSfoqlyD_KClIyD69JGR-200" vertex="1">
          <mxGeometry x="50" y="30" width="455" height="30" as="geometry" />
        </mxCell>
        <mxCell id="dSfoqlyD_KClIyD69JGR-203" value="" style="rounded=0;whiteSpace=wrap;html=1;strokeColor=#000000;strokeWidth=2;" parent="dSfoqlyD_KClIyD69JGR-200" vertex="1">
          <mxGeometry x="50" y="60" width="455" height="30" as="geometry" />
        </mxCell>
        <mxCell id="dSfoqlyD_KClIyD69JGR-204" value="" style="rounded=0;whiteSpace=wrap;html=1;strokeColor=#000000;strokeWidth=2;" parent="dSfoqlyD_KClIyD69JGR-200" vertex="1">
          <mxGeometry x="50" y="120" width="455" height="30" as="geometry" />
        </mxCell>
        <mxCell id="dSfoqlyD_KClIyD69JGR-205" value="" style="rounded=0;whiteSpace=wrap;html=1;strokeColor=#000000;strokeWidth=2;" parent="dSfoqlyD_KClIyD69JGR-200" vertex="1">
          <mxGeometry x="50" y="90" width="455" height="30" as="geometry" />
        </mxCell>
        <mxCell id="dSfoqlyD_KClIyD69JGR-206" value="" style="rounded=0;whiteSpace=wrap;html=1;strokeColor=#000000;strokeWidth=2;" parent="dSfoqlyD_KClIyD69JGR-200" vertex="1">
          <mxGeometry x="50" y="150" width="455" height="30" as="geometry" />
        </mxCell>
        <mxCell id="dSfoqlyD_KClIyD69JGR-207" value="" style="shape=curlyBracket;whiteSpace=wrap;html=1;rounded=1;strokeColor=#000000;strokeWidth=2;" parent="dSfoqlyD_KClIyD69JGR-200" vertex="1">
          <mxGeometry x="30" y="30" width="20" height="150" as="geometry" />
        </mxCell>
        <mxCell id="dSfoqlyD_KClIyD69JGR-208" value="&lt;span style=&quot;font-size: 16px&quot;&gt;&lt;b&gt;X&lt;/b&gt;&lt;/span&gt;" style="text;html=1;strokeColor=none;fillColor=none;align=center;verticalAlign=middle;whiteSpace=wrap;rounded=0;" parent="dSfoqlyD_KClIyD69JGR-200" vertex="1">
          <mxGeometry y="95" width="40" height="20" as="geometry" />
        </mxCell>
        <mxCell id="dSfoqlyD_KClIyD69JGR-209" value="" style="shape=curlyBracket;whiteSpace=wrap;html=1;rounded=1;strokeColor=#000000;strokeWidth=2;size=0.5;" parent="dSfoqlyD_KClIyD69JGR-200" vertex="1">
          <mxGeometry x="30" width="20" height="30" as="geometry" />
        </mxCell>
        <mxCell id="dSfoqlyD_KClIyD69JGR-210" value="&lt;span style=&quot;font-size: 16px&quot;&gt;&lt;b&gt;y&lt;/b&gt;&lt;/span&gt;" style="text;html=1;strokeColor=none;fillColor=none;align=center;verticalAlign=middle;whiteSpace=wrap;rounded=0;" parent="dSfoqlyD_KClIyD69JGR-200" vertex="1">
          <mxGeometry y="5" width="40" height="20" as="geometry" />
        </mxCell>
        <mxCell id="dSfoqlyD_KClIyD69JGR-211" value="" style="curved=1;endArrow=none;html=1;strokeWidth=2;fillColor=#FFFFFF;exitX=0;exitY=0;exitDx=0;exitDy=0;entryX=1;entryY=0;entryDx=0;entryDy=0;endFill=0;" parent="dSfoqlyD_KClIyD69JGR-200" source="dSfoqlyD_KClIyD69JGR-203" target="dSfoqlyD_KClIyD69JGR-203" edge="1">
          <mxGeometry width="50" height="50" relative="1" as="geometry">
            <mxPoint x="-170" y="20" as="sourcePoint" />
            <mxPoint x="-120" y="-30" as="targetPoint" />
            <Array as="points">
              <mxPoint x="100" y="50" />
              <mxPoint x="80" y="40" />
              <mxPoint x="150" y="50" />
              <mxPoint x="170" y="60" />
              <mxPoint x="200" y="40" />
              <mxPoint x="230" y="50" />
              <mxPoint x="260" y="40" />
              <mxPoint x="310" y="60" />
              <mxPoint x="350" y="40" />
              <mxPoint x="390" y="50" />
              <mxPoint x="410" y="50" />
              <mxPoint x="430" y="40" />
              <mxPoint x="470" y="50" />
            </Array>
          </mxGeometry>
        </mxCell>
        <mxCell id="dSfoqlyD_KClIyD69JGR-212" value="" style="curved=1;endArrow=none;html=1;strokeWidth=2;fillColor=#FFFFFF;entryX=1;entryY=1;entryDx=0;entryDy=0;exitX=0;exitY=0;exitDx=0;exitDy=0;endFill=0;" parent="dSfoqlyD_KClIyD69JGR-200" source="dSfoqlyD_KClIyD69JGR-205" target="dSfoqlyD_KClIyD69JGR-203" edge="1">
          <mxGeometry width="50" height="50" relative="1" as="geometry">
            <mxPoint x="-140" y="50" as="sourcePoint" />
            <mxPoint x="-90" as="targetPoint" />
            <Array as="points">
              <mxPoint x="90" y="70" />
              <mxPoint x="220" y="80" />
              <mxPoint x="270" y="60" />
              <mxPoint x="330" y="80" />
              <mxPoint x="360" y="75" />
              <mxPoint x="400" y="70" />
              <mxPoint x="470" y="75" />
            </Array>
          </mxGeometry>
        </mxCell>
        <mxCell id="dSfoqlyD_KClIyD69JGR-213" value="" style="curved=1;endArrow=none;html=1;strokeColor=#000000;strokeWidth=2;fillColor=#FFFFFF;entryX=1;entryY=1;entryDx=0;entryDy=0;exitX=0;exitY=0;exitDx=0;exitDy=0;endFill=0;" parent="dSfoqlyD_KClIyD69JGR-200" source="dSfoqlyD_KClIyD69JGR-204" target="dSfoqlyD_KClIyD69JGR-205" edge="1">
          <mxGeometry width="50" height="50" relative="1" as="geometry">
            <mxPoint x="-70" y="120" as="sourcePoint" />
            <mxPoint x="-20" y="70" as="targetPoint" />
            <Array as="points">
              <mxPoint x="100" y="100" />
              <mxPoint x="130" y="110" />
              <mxPoint x="200" y="105" />
              <mxPoint x="170" y="90" />
              <mxPoint x="300" y="120" />
              <mxPoint x="390" y="100" />
              <mxPoint x="420" y="90" />
            </Array>
          </mxGeometry>
        </mxCell>
        <mxCell id="dSfoqlyD_KClIyD69JGR-214" value="" style="curved=1;endArrow=none;html=1;strokeColor=#000000;strokeWidth=2;fillColor=#FFFFFF;endFill=0;exitX=0;exitY=0;exitDx=0;exitDy=0;entryX=1;entryY=0;entryDx=0;entryDy=0;" parent="dSfoqlyD_KClIyD69JGR-200" source="dSfoqlyD_KClIyD69JGR-206" target="dSfoqlyD_KClIyD69JGR-206" edge="1">
          <mxGeometry width="50" height="50" relative="1" as="geometry">
            <mxPoint x="50" y="330" as="sourcePoint" />
            <mxPoint x="100" y="280" as="targetPoint" />
            <Array as="points">
              <mxPoint x="140" y="130" />
              <mxPoint x="190" y="130" />
              <mxPoint x="270" y="130" />
            </Array>
          </mxGeometry>
        </mxCell>
        <mxCell id="dSfoqlyD_KClIyD69JGR-215" value="" style="curved=1;endArrow=none;html=1;strokeColor=#000000;strokeWidth=2;fillColor=#FFFFFF;endFill=0;exitX=0;exitY=1;exitDx=0;exitDy=0;entryX=1;entryY=1;entryDx=0;entryDy=0;" parent="dSfoqlyD_KClIyD69JGR-200" source="dSfoqlyD_KClIyD69JGR-206" target="dSfoqlyD_KClIyD69JGR-206" edge="1">
          <mxGeometry width="50" height="50" relative="1" as="geometry">
            <mxPoint x="220" y="280" as="sourcePoint" />
            <mxPoint x="270" y="230" as="targetPoint" />
            <Array as="points">
              <mxPoint x="100" y="150" />
              <mxPoint x="110" y="170" />
              <mxPoint x="130" y="165" />
              <mxPoint x="160" y="150" />
              <mxPoint x="260" y="180" />
              <mxPoint x="290" y="165" />
              <mxPoint x="340" y="150" />
              <mxPoint x="420" y="170" />
              <mxPoint x="460" y="160" />
            </Array>
          </mxGeometry>
        </mxCell>
        <mxCell id="dSfoqlyD_KClIyD69JGR-216" value="" style="curved=1;endArrow=none;html=1;strokeWidth=2;fillColor=#FFFFFF;endFill=0;exitX=0;exitY=0;exitDx=0;exitDy=0;entryX=1;entryY=0;entryDx=0;entryDy=0;strokeColor=#FF0000;" parent="dSfoqlyD_KClIyD69JGR-200" source="dSfoqlyD_KClIyD69JGR-202" target="dSfoqlyD_KClIyD69JGR-202" edge="1">
          <mxGeometry width="50" height="50" relative="1" as="geometry">
            <mxPoint x="-110" y="30" as="sourcePoint" />
            <mxPoint x="-60" y="-20" as="targetPoint" />
            <Array as="points">
              <mxPoint x="90" />
              <mxPoint x="120" y="20" />
              <mxPoint x="150" y="10" />
              <mxPoint x="220" y="10" />
              <mxPoint x="270" y="20" />
              <mxPoint x="310" y="10" />
              <mxPoint x="340" y="30" />
              <mxPoint x="380" y="20" />
              <mxPoint x="420" y="10" />
              <mxPoint x="450" y="20" />
              <mxPoint x="480" y="10" />
            </Array>
          </mxGeometry>
        </mxCell>
        <mxCell id="dSfoqlyD_KClIyD69JGR-217" value="&lt;span style=&quot;font-size: 16px&quot;&gt;&lt;b&gt;滑动窗口&lt;/b&gt;&lt;/span&gt;" style="text;html=1;strokeColor=none;fillColor=none;align=center;verticalAlign=middle;whiteSpace=wrap;rounded=0;" parent="dSfoqlyD_KClIyD69JGR-200" vertex="1">
          <mxGeometry x="83" y="202" width="85" height="20" as="geometry" />
        </mxCell>
        <mxCell id="dSfoqlyD_KClIyD69JGR-218" value="" style="rounded=0;whiteSpace=wrap;html=1;strokeWidth=2;fillColor=none;strokeColor=#FF0000;" parent="1" vertex="1">
          <mxGeometry x="1017.5" y="70" width="110" height="220" as="geometry" />
        </mxCell>
        <mxCell id="dSfoqlyD_KClIyD69JGR-219" value="" style="rounded=0;whiteSpace=wrap;html=1;strokeWidth=2;fillColor=none;strokeColor=#00994D;" parent="1" vertex="1">
          <mxGeometry x="1034.5" y="85" width="16" height="190" as="geometry" />
        </mxCell>
        <mxCell id="dSfoqlyD_KClIyD69JGR-220" value="" style="rounded=0;whiteSpace=wrap;html=1;strokeWidth=2;fillColor=none;strokeColor=#00994D;" parent="1" vertex="1">
          <mxGeometry x="1064.5" y="85" width="16" height="190" as="geometry" />
        </mxCell>
        <mxCell id="dSfoqlyD_KClIyD69JGR-221" value="" style="rounded=0;whiteSpace=wrap;html=1;strokeWidth=2;fillColor=none;strokeColor=#00994D;" parent="1" vertex="1">
          <mxGeometry x="1094.5" y="85" width="16" height="190" as="geometry" />
        </mxCell>
        <mxCell id="dSfoqlyD_KClIyD69JGR-222" value="&lt;span style=&quot;font-size: 16px&quot;&gt;&lt;b&gt;X&lt;sub&gt;t&lt;/sub&gt;={x&lt;sub&gt;t&lt;/sub&gt;&lt;sup&gt;1&lt;/sup&gt;,&lt;/b&gt;&lt;/span&gt;&lt;b style=&quot;font-size: 16px&quot;&gt;x&lt;sub&gt;t&lt;/sub&gt;&lt;sup&gt;2&lt;/sup&gt;&lt;/b&gt;&lt;b style=&quot;font-size: 16px&quot;&gt;x&lt;sub&gt;t&lt;/sub&gt;...&lt;/b&gt;&lt;b style=&quot;font-size: 16px&quot;&gt;x&lt;sub&gt;t&lt;/sub&gt;&lt;sup&gt;L&lt;/sup&gt;} 1&amp;lt;=t&amp;lt;=T&amp;nbsp;&lt;/b&gt;&lt;span style=&quot;font-size: 16px&quot;&gt;&lt;b&gt;&lt;br&gt;&lt;/b&gt;&lt;/span&gt;" style="text;html=1;strokeColor=none;fillColor=none;align=center;verticalAlign=middle;whiteSpace=wrap;rounded=0;" parent="1" vertex="1">
          <mxGeometry x="907.5" y="40" width="330" height="20" as="geometry" />
        </mxCell>
        <mxCell id="dSfoqlyD_KClIyD69JGR-223" value="" style="endArrow=classic;html=1;strokeWidth=2;fillColor=#FFFFFF;" parent="1" edge="1">
          <mxGeometry width="50" height="50" relative="1" as="geometry">
            <mxPoint x="1264.5" y="70" as="sourcePoint" />
            <mxPoint x="1344.5" y="70" as="targetPoint" />
          </mxGeometry>
        </mxCell>
        <mxCell id="dSfoqlyD_KClIyD69JGR-224" value="&lt;span style=&quot;font-size: 16px&quot;&gt;&lt;b&gt;窗口滑动&lt;/b&gt;&lt;/span&gt;" style="text;html=1;strokeColor=none;fillColor=none;align=center;verticalAlign=middle;whiteSpace=wrap;rounded=0;" parent="1" vertex="1">
          <mxGeometry x="1254.5" y="40" width="103" height="20" as="geometry" />
        </mxCell>
        <mxCell id="dSfoqlyD_KClIyD69JGR-225" value="" style="rounded=0;whiteSpace=wrap;html=1;strokeWidth=2;fillColor=none;" parent="1" vertex="1">
          <mxGeometry x="920.5" y="342.5" width="317" height="45" as="geometry" />
        </mxCell>
        <mxCell id="dSfoqlyD_KClIyD69JGR-226" value="&lt;b style=&quot;font-size: 16px&quot;&gt;注意力层&lt;/b&gt;" style="text;html=1;strokeColor=none;fillColor=none;align=center;verticalAlign=middle;whiteSpace=wrap;rounded=0;" parent="1" vertex="1">
          <mxGeometry x="1227.5" y="355" width="103" height="20" as="geometry" />
        </mxCell>
        <mxCell id="dSfoqlyD_KClIyD69JGR-227" value="" style="edgeStyle=none;rounded=0;orthogonalLoop=1;jettySize=auto;html=1;endArrow=classicThin;endFill=1;strokeColor=#000000;strokeWidth=2;fillColor=#FFFFFF;" parent="1" source="dSfoqlyD_KClIyD69JGR-217" edge="1">
          <mxGeometry relative="1" as="geometry">
            <mxPoint x="1070.5" y="340" as="targetPoint" />
          </mxGeometry>
        </mxCell>
        <mxCell id="dSfoqlyD_KClIyD69JGR-228" value="&lt;b style=&quot;font-size: 16px&quot;&gt;W&lt;sub&gt;i&lt;/sub&gt;&amp;nbsp;&lt;sup&gt;1&lt;/sup&gt;&lt;/b&gt;" style="text;html=1;strokeColor=none;fillColor=none;align=center;verticalAlign=middle;whiteSpace=wrap;rounded=0;strokeWidth=2;" parent="1" vertex="1">
          <mxGeometry x="920.5" y="355" width="40" height="20" as="geometry" />
        </mxCell>
        <mxCell id="dSfoqlyD_KClIyD69JGR-229" value="&lt;b style=&quot;font-size: 16px&quot;&gt;W&lt;sub&gt;i&lt;/sub&gt;&amp;nbsp;&lt;sup&gt;2&lt;/sup&gt;&lt;/b&gt;" style="text;html=1;strokeColor=none;fillColor=none;align=center;verticalAlign=middle;whiteSpace=wrap;rounded=0;strokeWidth=2;" parent="1" vertex="1">
          <mxGeometry x="960.5" y="355" width="40" height="20" as="geometry" />
        </mxCell>
        <mxCell id="dSfoqlyD_KClIyD69JGR-230" value="&lt;b style=&quot;font-size: 16px&quot;&gt;W&lt;sub&gt;i&lt;/sub&gt;&amp;nbsp;&lt;sup&gt;L&lt;/sup&gt;&lt;/b&gt;" style="text;html=1;strokeColor=none;fillColor=none;align=center;verticalAlign=middle;whiteSpace=wrap;rounded=0;strokeWidth=2;" parent="1" vertex="1">
          <mxGeometry x="1187.5" y="355" width="60" height="20" as="geometry" />
        </mxCell>
        <mxCell id="dSfoqlyD_KClIyD69JGR-231" value="&lt;b style=&quot;font-size: 16px&quot;&gt;W&lt;sub&gt;i&lt;/sub&gt;&lt;sup&gt;3&lt;/sup&gt;&lt;/b&gt;" style="text;html=1;strokeColor=none;fillColor=none;align=center;verticalAlign=middle;whiteSpace=wrap;rounded=0;strokeWidth=2;" parent="1" vertex="1">
          <mxGeometry x="1000.5" y="355" width="40" height="20" as="geometry" />
        </mxCell>
        <mxCell id="dSfoqlyD_KClIyD69JGR-232" value="&lt;b style=&quot;font-size: 16px&quot;&gt;W&lt;sub&gt;i&lt;/sub&gt;&amp;nbsp;&lt;sup&gt;L-2&lt;/sup&gt;&lt;/b&gt;" style="text;html=1;strokeColor=none;fillColor=none;align=center;verticalAlign=middle;whiteSpace=wrap;rounded=0;strokeWidth=2;" parent="1" vertex="1">
          <mxGeometry x="1097.5" y="355" width="53" height="20" as="geometry" />
        </mxCell>
        <mxCell id="dSfoqlyD_KClIyD69JGR-233" value="&lt;b style=&quot;font-size: 16px&quot;&gt;W&lt;sub&gt;i&lt;/sub&gt;&amp;nbsp;&lt;sup&gt;L-1&lt;/sup&gt;&lt;/b&gt;" style="text;html=1;strokeColor=none;fillColor=none;align=center;verticalAlign=middle;whiteSpace=wrap;rounded=0;strokeWidth=2;" parent="1" vertex="1">
          <mxGeometry x="1147.5" y="355" width="53" height="20" as="geometry" />
        </mxCell>
        <mxCell id="dSfoqlyD_KClIyD69JGR-234" value="&lt;b&gt;&lt;sup&gt;&lt;font style=&quot;font-size: 19px&quot;&gt;...&lt;/font&gt;&lt;/sup&gt;&lt;/b&gt;" style="text;html=1;strokeColor=none;fillColor=none;align=center;verticalAlign=middle;whiteSpace=wrap;rounded=0;strokeWidth=2;" parent="1" vertex="1">
          <mxGeometry x="1052.5" y="350" width="40" height="20" as="geometry" />
        </mxCell>
        <mxCell id="dSfoqlyD_KClIyD69JGR-235" value="&lt;span style=&quot;font-size: 16px&quot;&gt;&lt;b&gt;X&lt;sub&gt;t&lt;/sub&gt;&lt;sup&gt;W&lt;/sup&gt;={x&lt;sub&gt;t&lt;/sub&gt;&lt;sup&gt;1&lt;/sup&gt;.&lt;/b&gt;&lt;/span&gt;&lt;b style=&quot;font-size: 16px&quot;&gt;W&lt;sub&gt;i&lt;/sub&gt;&amp;nbsp;&lt;sup&gt;1&lt;/sup&gt;&lt;/b&gt;&lt;span style=&quot;font-size: 16px&quot;&gt;&lt;b&gt;,&lt;/b&gt;&lt;/span&gt;&lt;b style=&quot;font-size: 16px&quot;&gt;x&lt;sub&gt;t&lt;/sub&gt;&lt;sup&gt;2&lt;/sup&gt;&lt;/b&gt;&lt;span style=&quot;font-size: 16px&quot;&gt;&lt;b&gt;.&lt;/b&gt;&lt;/span&gt;&lt;b style=&quot;font-size: 16px&quot;&gt;W&lt;sub&gt;i&lt;/sub&gt;&amp;nbsp;&lt;sup&gt;2&lt;/sup&gt;,&lt;/b&gt;&lt;b style=&quot;font-size: 16px&quot;&gt;x&lt;sub&gt;t3&lt;/sub&gt;&lt;/b&gt;&lt;span style=&quot;font-size: 16px&quot;&gt;&lt;b&gt;.&lt;/b&gt;&lt;/span&gt;&lt;b style=&quot;font-size: 16px&quot;&gt;W&lt;sub&gt;i&lt;/sub&gt;&amp;nbsp;&lt;sup&gt;3&lt;/sup&gt;,&lt;/b&gt;&lt;b style=&quot;font-size: 16px&quot;&gt;...&lt;/b&gt;&lt;b style=&quot;font-size: 16px&quot;&gt;x&lt;sub&gt;t&lt;/sub&gt;&lt;sup&gt;L&lt;/sup&gt;&lt;/b&gt;&lt;span style=&quot;font-size: 16px&quot;&gt;&lt;b&gt;.&lt;/b&gt;&lt;/span&gt;&lt;b style=&quot;font-size: 16px&quot;&gt;W&lt;sub&gt;i&lt;/sub&gt;&amp;nbsp;&lt;sup&gt;L&lt;/sup&gt;&lt;/b&gt;&lt;b style=&quot;font-size: 16px&quot;&gt;}&amp;nbsp;&lt;/b&gt;&lt;span style=&quot;font-size: 16px&quot;&gt;&lt;b&gt;&lt;br&gt;&lt;/b&gt;&lt;/span&gt;" style="text;html=1;strokeColor=none;fillColor=none;align=center;verticalAlign=middle;whiteSpace=wrap;rounded=0;" parent="1" vertex="1">
          <mxGeometry x="896.5" y="420" width="358" height="30" as="geometry" />
        </mxCell>
        <mxCell id="dSfoqlyD_KClIyD69JGR-236" value="" style="endArrow=classic;html=1;strokeColor=#000000;strokeWidth=2;fillColor=#FFFFFF;exitX=0.484;exitY=1.017;exitDx=0;exitDy=0;exitPerimeter=0;" parent="1" source="dSfoqlyD_KClIyD69JGR-225" edge="1">
          <mxGeometry width="50" height="50" relative="1" as="geometry">
            <mxPoint x="1075.5" y="400" as="sourcePoint" />
            <mxPoint x="1073.5" y="419" as="targetPoint" />
          </mxGeometry>
        </mxCell>
        <mxCell id="dSfoqlyD_KClIyD69JGR-237" value="" style="rounded=0;whiteSpace=wrap;html=1;strokeColor=#000000;strokeWidth=2;fillColor=none;" parent="1" vertex="1">
          <mxGeometry x="889.5" y="485" width="378" height="220" as="geometry" />
        </mxCell>
        <mxCell id="dSfoqlyD_KClIyD69JGR-238" value="" style="endArrow=classic;html=1;strokeColor=#000000;strokeWidth=2;fillColor=#FFFFFF;exitX=0.5;exitY=1;exitDx=0;exitDy=0;" parent="1" source="dSfoqlyD_KClIyD69JGR-235" target="dSfoqlyD_KClIyD69JGR-237" edge="1">
          <mxGeometry width="50" height="50" relative="1" as="geometry">
            <mxPoint x="1377.5" y="530" as="sourcePoint" />
            <mxPoint x="1427.5" y="480" as="targetPoint" />
          </mxGeometry>
        </mxCell>
        <mxCell id="dSfoqlyD_KClIyD69JGR-239" value="&lt;b style=&quot;font-size: 16px&quot;&gt;LSTM层&lt;/b&gt;" style="text;html=1;strokeColor=none;fillColor=none;align=center;verticalAlign=middle;whiteSpace=wrap;rounded=0;" parent="1" vertex="1">
          <mxGeometry x="1256.5" y="585" width="103" height="20" as="geometry" />
        </mxCell>
        <mxCell id="dSfoqlyD_KClIyD69JGR-240" style="edgeStyle=none;rounded=0;orthogonalLoop=1;jettySize=auto;html=1;exitX=1;exitY=0.5;exitDx=0;exitDy=0;endArrow=classic;endFill=1;strokeColor=#000000;strokeWidth=2;fillColor=#FFFFFF;" parent="1" source="dSfoqlyD_KClIyD69JGR-242" target="dSfoqlyD_KClIyD69JGR-245" edge="1">
          <mxGeometry relative="1" as="geometry" />
        </mxCell>
        <mxCell id="dSfoqlyD_KClIyD69JGR-241" value="" style="edgeStyle=none;rounded=0;orthogonalLoop=1;jettySize=auto;html=1;endArrow=classic;endFill=1;strokeColor=#000000;strokeWidth=2;fillColor=#FFFFFF;" parent="1" source="dSfoqlyD_KClIyD69JGR-242" target="dSfoqlyD_KClIyD69JGR-258" edge="1">
          <mxGeometry relative="1" as="geometry" />
        </mxCell>
        <mxCell id="dSfoqlyD_KClIyD69JGR-242" value="LSTM" style="rounded=0;whiteSpace=wrap;html=1;strokeColor=#000000;strokeWidth=2;fillColor=none;" parent="1" vertex="1">
          <mxGeometry x="901.5" y="510" width="43" height="36" as="geometry" />
        </mxCell>
        <mxCell id="dSfoqlyD_KClIyD69JGR-243" style="edgeStyle=none;rounded=0;orthogonalLoop=1;jettySize=auto;html=1;exitX=1;exitY=0.5;exitDx=0;exitDy=0;entryX=0;entryY=0.5;entryDx=0;entryDy=0;endArrow=classic;endFill=1;strokeColor=#000000;strokeWidth=2;fillColor=#FFFFFF;" parent="1" source="dSfoqlyD_KClIyD69JGR-245" target="dSfoqlyD_KClIyD69JGR-255" edge="1">
          <mxGeometry relative="1" as="geometry" />
        </mxCell>
        <mxCell id="dSfoqlyD_KClIyD69JGR-244" value="" style="edgeStyle=none;rounded=0;orthogonalLoop=1;jettySize=auto;html=1;endArrow=classic;endFill=1;strokeColor=#000000;strokeWidth=2;fillColor=#FFFFFF;" parent="1" source="dSfoqlyD_KClIyD69JGR-245" target="dSfoqlyD_KClIyD69JGR-260" edge="1">
          <mxGeometry relative="1" as="geometry" />
        </mxCell>
        <mxCell id="dSfoqlyD_KClIyD69JGR-245" value="LSTM" style="rounded=0;whiteSpace=wrap;html=1;strokeColor=#000000;strokeWidth=2;fillColor=none;" parent="1" vertex="1">
          <mxGeometry x="960.5" y="509.5" width="43" height="36" as="geometry" />
        </mxCell>
        <mxCell id="dSfoqlyD_KClIyD69JGR-246" value="" style="edgeStyle=none;rounded=0;orthogonalLoop=1;jettySize=auto;html=1;endArrow=classic;endFill=1;strokeColor=#000000;strokeWidth=2;fillColor=#FFFFFF;" parent="1" source="dSfoqlyD_KClIyD69JGR-247" target="dSfoqlyD_KClIyD69JGR-261" edge="1">
          <mxGeometry relative="1" as="geometry" />
        </mxCell>
        <mxCell id="dSfoqlyD_KClIyD69JGR-247" value="LSTM" style="rounded=0;whiteSpace=wrap;html=1;strokeColor=#000000;strokeWidth=2;fillColor=none;" parent="1" vertex="1">
          <mxGeometry x="1211.5" y="511.5" width="43" height="36" as="geometry" />
        </mxCell>
        <mxCell id="dSfoqlyD_KClIyD69JGR-248" style="edgeStyle=none;rounded=0;orthogonalLoop=1;jettySize=auto;html=1;exitX=1;exitY=0.5;exitDx=0;exitDy=0;entryX=0;entryY=0.5;entryDx=0;entryDy=0;endArrow=classic;endFill=1;strokeColor=#000000;strokeWidth=2;fillColor=#FFFFFF;" parent="1" source="dSfoqlyD_KClIyD69JGR-250" target="dSfoqlyD_KClIyD69JGR-247" edge="1">
          <mxGeometry relative="1" as="geometry" />
        </mxCell>
        <mxCell id="dSfoqlyD_KClIyD69JGR-249" value="" style="edgeStyle=none;rounded=0;orthogonalLoop=1;jettySize=auto;html=1;endArrow=classic;endFill=1;strokeColor=#000000;strokeWidth=2;fillColor=#FFFFFF;" parent="1" source="dSfoqlyD_KClIyD69JGR-250" target="dSfoqlyD_KClIyD69JGR-263" edge="1">
          <mxGeometry relative="1" as="geometry" />
        </mxCell>
        <mxCell id="dSfoqlyD_KClIyD69JGR-250" value="LSTM" style="rounded=0;whiteSpace=wrap;html=1;strokeColor=#000000;strokeWidth=2;fillColor=none;" parent="1" vertex="1">
          <mxGeometry x="1152.5" y="511.5" width="43" height="36" as="geometry" />
        </mxCell>
        <mxCell id="dSfoqlyD_KClIyD69JGR-251" style="edgeStyle=none;rounded=0;orthogonalLoop=1;jettySize=auto;html=1;exitX=1;exitY=0.5;exitDx=0;exitDy=0;entryX=0;entryY=0.5;entryDx=0;entryDy=0;endArrow=classic;endFill=1;strokeColor=#000000;strokeWidth=2;fillColor=#FFFFFF;" parent="1" source="dSfoqlyD_KClIyD69JGR-253" target="dSfoqlyD_KClIyD69JGR-250" edge="1">
          <mxGeometry relative="1" as="geometry" />
        </mxCell>
        <mxCell id="dSfoqlyD_KClIyD69JGR-252" value="" style="edgeStyle=none;rounded=0;orthogonalLoop=1;jettySize=auto;html=1;endArrow=classic;endFill=1;strokeColor=#000000;strokeWidth=2;fillColor=#FFFFFF;" parent="1" source="dSfoqlyD_KClIyD69JGR-253" target="dSfoqlyD_KClIyD69JGR-265" edge="1">
          <mxGeometry relative="1" as="geometry" />
        </mxCell>
        <mxCell id="dSfoqlyD_KClIyD69JGR-253" value="LSTM" style="rounded=0;whiteSpace=wrap;html=1;strokeColor=#000000;strokeWidth=2;fillColor=none;" parent="1" vertex="1">
          <mxGeometry x="1092.5" y="511.5" width="43" height="36" as="geometry" />
        </mxCell>
        <mxCell id="dSfoqlyD_KClIyD69JGR-254" value="" style="edgeStyle=none;rounded=0;orthogonalLoop=1;jettySize=auto;html=1;endArrow=classic;endFill=1;strokeColor=#000000;strokeWidth=2;fillColor=#FFFFFF;" parent="1" source="dSfoqlyD_KClIyD69JGR-255" target="dSfoqlyD_KClIyD69JGR-266" edge="1">
          <mxGeometry relative="1" as="geometry" />
        </mxCell>
        <mxCell id="dSfoqlyD_KClIyD69JGR-255" value="LSTM" style="rounded=0;whiteSpace=wrap;html=1;strokeColor=#000000;strokeWidth=2;fillColor=none;" parent="1" vertex="1">
          <mxGeometry x="1021.5" y="510" width="43" height="36" as="geometry" />
        </mxCell>
        <mxCell id="dSfoqlyD_KClIyD69JGR-256" value="&lt;span style=&quot;font-size: 16px&quot;&gt;&lt;b&gt;...&lt;/b&gt;&lt;/span&gt;" style="text;html=1;strokeColor=none;fillColor=none;align=center;verticalAlign=middle;whiteSpace=wrap;rounded=0;" parent="1" vertex="1">
          <mxGeometry x="1069" y="517.5" width="20" height="20" as="geometry" />
        </mxCell>
        <mxCell id="dSfoqlyD_KClIyD69JGR-257" style="edgeStyle=none;rounded=0;orthogonalLoop=1;jettySize=auto;html=1;exitX=1;exitY=0.5;exitDx=0;exitDy=0;endArrow=classic;endFill=1;strokeColor=#000000;strokeWidth=2;fillColor=#FFFFFF;" parent="1" source="dSfoqlyD_KClIyD69JGR-258" target="dSfoqlyD_KClIyD69JGR-260" edge="1">
          <mxGeometry relative="1" as="geometry" />
        </mxCell>
        <mxCell id="dSfoqlyD_KClIyD69JGR-258" value="LSTM" style="rounded=0;whiteSpace=wrap;html=1;strokeColor=#000000;strokeWidth=2;fillColor=none;" parent="1" vertex="1">
          <mxGeometry x="902.5" y="586.5" width="43" height="36" as="geometry" />
        </mxCell>
        <mxCell id="dSfoqlyD_KClIyD69JGR-259" style="edgeStyle=none;rounded=0;orthogonalLoop=1;jettySize=auto;html=1;exitX=1;exitY=0.5;exitDx=0;exitDy=0;entryX=0;entryY=0.5;entryDx=0;entryDy=0;endArrow=classic;endFill=1;strokeColor=#000000;strokeWidth=2;fillColor=#FFFFFF;" parent="1" source="dSfoqlyD_KClIyD69JGR-260" target="dSfoqlyD_KClIyD69JGR-266" edge="1">
          <mxGeometry relative="1" as="geometry" />
        </mxCell>
        <mxCell id="dSfoqlyD_KClIyD69JGR-260" value="LSTM" style="rounded=0;whiteSpace=wrap;html=1;strokeColor=#000000;strokeWidth=2;fillColor=none;" parent="1" vertex="1">
          <mxGeometry x="961.5" y="586" width="43" height="36" as="geometry" />
        </mxCell>
        <mxCell id="dSfoqlyD_KClIyD69JGR-261" value="LSTM" style="rounded=0;whiteSpace=wrap;html=1;strokeColor=#000000;strokeWidth=2;fillColor=none;" parent="1" vertex="1">
          <mxGeometry x="1212.5" y="588" width="43" height="36" as="geometry" />
        </mxCell>
        <mxCell id="dSfoqlyD_KClIyD69JGR-262" style="edgeStyle=none;rounded=0;orthogonalLoop=1;jettySize=auto;html=1;exitX=1;exitY=0.5;exitDx=0;exitDy=0;entryX=0;entryY=0.5;entryDx=0;entryDy=0;endArrow=classic;endFill=1;strokeColor=#000000;strokeWidth=2;fillColor=#FFFFFF;" parent="1" source="dSfoqlyD_KClIyD69JGR-263" target="dSfoqlyD_KClIyD69JGR-261" edge="1">
          <mxGeometry relative="1" as="geometry" />
        </mxCell>
        <mxCell id="dSfoqlyD_KClIyD69JGR-263" value="LSTM" style="rounded=0;whiteSpace=wrap;html=1;strokeColor=#000000;strokeWidth=2;fillColor=none;" parent="1" vertex="1">
          <mxGeometry x="1153.5" y="588" width="43" height="36" as="geometry" />
        </mxCell>
        <mxCell id="dSfoqlyD_KClIyD69JGR-264" style="edgeStyle=none;rounded=0;orthogonalLoop=1;jettySize=auto;html=1;exitX=1;exitY=0.5;exitDx=0;exitDy=0;entryX=0;entryY=0.5;entryDx=0;entryDy=0;endArrow=classic;endFill=1;strokeColor=#000000;strokeWidth=2;fillColor=#FFFFFF;" parent="1" source="dSfoqlyD_KClIyD69JGR-265" target="dSfoqlyD_KClIyD69JGR-263" edge="1">
          <mxGeometry relative="1" as="geometry" />
        </mxCell>
        <mxCell id="dSfoqlyD_KClIyD69JGR-265" value="LSTM" style="rounded=0;whiteSpace=wrap;html=1;strokeColor=#000000;strokeWidth=2;fillColor=none;" parent="1" vertex="1">
          <mxGeometry x="1093.5" y="588" width="43" height="36" as="geometry" />
        </mxCell>
        <mxCell id="dSfoqlyD_KClIyD69JGR-266" value="LSTM" style="rounded=0;whiteSpace=wrap;html=1;strokeColor=#000000;strokeWidth=2;fillColor=none;" parent="1" vertex="1">
          <mxGeometry x="1022.5" y="586.5" width="43" height="36" as="geometry" />
        </mxCell>
        <mxCell id="dSfoqlyD_KClIyD69JGR-267" value="&lt;span style=&quot;font-size: 16px&quot;&gt;&lt;b&gt;...&lt;/b&gt;&lt;/span&gt;" style="text;html=1;strokeColor=none;fillColor=none;align=center;verticalAlign=middle;whiteSpace=wrap;rounded=0;" parent="1" vertex="1">
          <mxGeometry x="1070" y="594" width="20" height="20" as="geometry" />
        </mxCell>
        <mxCell id="dSfoqlyD_KClIyD69JGR-268" style="edgeStyle=none;rounded=0;orthogonalLoop=1;jettySize=auto;html=1;exitX=1;exitY=0.5;exitDx=0;exitDy=0;endArrow=classic;endFill=1;strokeColor=#000000;strokeWidth=2;fillColor=#FFFFFF;" parent="1" source="dSfoqlyD_KClIyD69JGR-269" target="dSfoqlyD_KClIyD69JGR-271" edge="1">
          <mxGeometry relative="1" as="geometry" />
        </mxCell>
        <mxCell id="dSfoqlyD_KClIyD69JGR-269" value="LSTM" style="rounded=0;whiteSpace=wrap;html=1;strokeColor=#000000;strokeWidth=2;fillColor=none;" parent="1" vertex="1">
          <mxGeometry x="903.5" y="654.5" width="43" height="36" as="geometry" />
        </mxCell>
        <mxCell id="dSfoqlyD_KClIyD69JGR-270" style="edgeStyle=none;rounded=0;orthogonalLoop=1;jettySize=auto;html=1;exitX=1;exitY=0.5;exitDx=0;exitDy=0;entryX=0;entryY=0.5;entryDx=0;entryDy=0;endArrow=classic;endFill=1;strokeColor=#000000;strokeWidth=2;fillColor=#FFFFFF;" parent="1" source="dSfoqlyD_KClIyD69JGR-271" target="dSfoqlyD_KClIyD69JGR-278" edge="1">
          <mxGeometry relative="1" as="geometry" />
        </mxCell>
        <mxCell id="dSfoqlyD_KClIyD69JGR-271" value="LSTM" style="rounded=0;whiteSpace=wrap;html=1;strokeColor=#000000;strokeWidth=2;fillColor=none;" parent="1" vertex="1">
          <mxGeometry x="962.5" y="654" width="43" height="36" as="geometry" />
        </mxCell>
        <mxCell id="dSfoqlyD_KClIyD69JGR-272" value="" style="edgeStyle=none;rounded=0;orthogonalLoop=1;jettySize=auto;html=1;endArrow=classic;endFill=1;strokeColor=#000000;strokeWidth=2;fillColor=#FFFFFF;" parent="1" source="dSfoqlyD_KClIyD69JGR-273" target="dSfoqlyD_KClIyD69JGR-287" edge="1">
          <mxGeometry relative="1" as="geometry" />
        </mxCell>
        <mxCell id="dSfoqlyD_KClIyD69JGR-273" value="LSTM" style="rounded=0;whiteSpace=wrap;html=1;strokeColor=#000000;strokeWidth=2;fillColor=none;" parent="1" vertex="1">
          <mxGeometry x="1213.5" y="656" width="43" height="36" as="geometry" />
        </mxCell>
        <mxCell id="dSfoqlyD_KClIyD69JGR-274" style="edgeStyle=none;rounded=0;orthogonalLoop=1;jettySize=auto;html=1;exitX=1;exitY=0.5;exitDx=0;exitDy=0;entryX=0;entryY=0.5;entryDx=0;entryDy=0;endArrow=classic;endFill=1;strokeColor=#000000;strokeWidth=2;fillColor=#FFFFFF;" parent="1" source="dSfoqlyD_KClIyD69JGR-275" target="dSfoqlyD_KClIyD69JGR-273" edge="1">
          <mxGeometry relative="1" as="geometry" />
        </mxCell>
        <mxCell id="dSfoqlyD_KClIyD69JGR-275" value="LSTM" style="rounded=0;whiteSpace=wrap;html=1;strokeColor=#000000;strokeWidth=2;fillColor=none;" parent="1" vertex="1">
          <mxGeometry x="1154.5" y="656" width="43" height="36" as="geometry" />
        </mxCell>
        <mxCell id="dSfoqlyD_KClIyD69JGR-276" style="edgeStyle=none;rounded=0;orthogonalLoop=1;jettySize=auto;html=1;exitX=1;exitY=0.5;exitDx=0;exitDy=0;entryX=0;entryY=0.5;entryDx=0;entryDy=0;endArrow=classic;endFill=1;strokeColor=#000000;strokeWidth=2;fillColor=#FFFFFF;" parent="1" source="dSfoqlyD_KClIyD69JGR-277" target="dSfoqlyD_KClIyD69JGR-275" edge="1">
          <mxGeometry relative="1" as="geometry" />
        </mxCell>
        <mxCell id="dSfoqlyD_KClIyD69JGR-277" value="LSTM" style="rounded=0;whiteSpace=wrap;html=1;strokeColor=#000000;strokeWidth=2;fillColor=none;" parent="1" vertex="1">
          <mxGeometry x="1094.5" y="656" width="43" height="36" as="geometry" />
        </mxCell>
        <mxCell id="dSfoqlyD_KClIyD69JGR-278" value="LSTM" style="rounded=0;whiteSpace=wrap;html=1;strokeColor=#000000;strokeWidth=2;fillColor=none;" parent="1" vertex="1">
          <mxGeometry x="1023.5" y="654.5" width="43" height="36" as="geometry" />
        </mxCell>
        <mxCell id="dSfoqlyD_KClIyD69JGR-279" value="&lt;span style=&quot;font-size: 16px&quot;&gt;&lt;b&gt;...&lt;/b&gt;&lt;/span&gt;" style="text;html=1;strokeColor=none;fillColor=none;align=center;verticalAlign=middle;whiteSpace=wrap;rounded=0;" parent="1" vertex="1">
          <mxGeometry x="1071" y="662" width="20" height="20" as="geometry" />
        </mxCell>
        <mxCell id="dSfoqlyD_KClIyD69JGR-280" value="&lt;span style=&quot;font-size: 16px&quot;&gt;&lt;b&gt;...&lt;/b&gt;&lt;/span&gt;" style="text;html=1;strokeColor=none;fillColor=none;align=center;verticalAlign=middle;whiteSpace=wrap;rounded=0;rotation=-90;" parent="1" vertex="1">
          <mxGeometry x="907.5" y="627.5" width="20" height="20" as="geometry" />
        </mxCell>
        <mxCell id="dSfoqlyD_KClIyD69JGR-281" value="&lt;span style=&quot;font-size: 16px&quot;&gt;&lt;b&gt;...&lt;/b&gt;&lt;/span&gt;" style="text;html=1;strokeColor=none;fillColor=none;align=center;verticalAlign=middle;whiteSpace=wrap;rounded=0;rotation=-90;" parent="1" vertex="1">
          <mxGeometry x="970.5" y="627.5" width="20" height="20" as="geometry" />
        </mxCell>
        <mxCell id="dSfoqlyD_KClIyD69JGR-282" value="&lt;span style=&quot;font-size: 16px&quot;&gt;&lt;b&gt;...&lt;/b&gt;&lt;/span&gt;" style="text;html=1;strokeColor=none;fillColor=none;align=center;verticalAlign=middle;whiteSpace=wrap;rounded=0;rotation=-90;" parent="1" vertex="1">
          <mxGeometry x="1030.5" y="627.5" width="20" height="20" as="geometry" />
        </mxCell>
        <mxCell id="dSfoqlyD_KClIyD69JGR-283" value="&lt;span style=&quot;font-size: 16px&quot;&gt;&lt;b&gt;...&lt;/b&gt;&lt;/span&gt;" style="text;html=1;strokeColor=none;fillColor=none;align=center;verticalAlign=middle;whiteSpace=wrap;rounded=0;rotation=-90;" parent="1" vertex="1">
          <mxGeometry x="1097.5" y="627.5" width="20" height="20" as="geometry" />
        </mxCell>
        <mxCell id="dSfoqlyD_KClIyD69JGR-284" value="&lt;span style=&quot;font-size: 16px&quot;&gt;&lt;b&gt;...&lt;/b&gt;&lt;/span&gt;" style="text;html=1;strokeColor=none;fillColor=none;align=center;verticalAlign=middle;whiteSpace=wrap;rounded=0;rotation=-90;" parent="1" vertex="1">
          <mxGeometry x="1164" y="627.5" width="20" height="20" as="geometry" />
        </mxCell>
        <mxCell id="dSfoqlyD_KClIyD69JGR-285" value="&lt;span style=&quot;font-size: 16px&quot;&gt;&lt;b&gt;...&lt;/b&gt;&lt;/span&gt;" style="text;html=1;strokeColor=none;fillColor=none;align=center;verticalAlign=middle;whiteSpace=wrap;rounded=0;rotation=-90;" parent="1" vertex="1">
          <mxGeometry x="1223" y="630" width="20" height="20" as="geometry" />
        </mxCell>
        <mxCell id="dSfoqlyD_KClIyD69JGR-286" value="" style="edgeStyle=none;rounded=0;orthogonalLoop=1;jettySize=auto;html=1;endArrow=classic;endFill=1;strokeColor=#000000;strokeWidth=2;fillColor=#FFFFFF;" parent="1" source="dSfoqlyD_KClIyD69JGR-287" edge="1">
          <mxGeometry relative="1" as="geometry">
            <mxPoint x="1233.416666666667" y="790" as="targetPoint" />
          </mxGeometry>
        </mxCell>
        <mxCell id="dSfoqlyD_KClIyD69JGR-287" value="Dense" style="rounded=0;whiteSpace=wrap;html=1;strokeColor=#000000;strokeWidth=2;fillColor=none;" parent="1" vertex="1">
          <mxGeometry x="1212.5" y="730" width="43" height="36" as="geometry" />
        </mxCell>
        <mxCell id="dSfoqlyD_KClIyD69JGR-288" value="&lt;span style=&quot;font-size: 16px&quot;&gt;&lt;b&gt;Y&lt;sub&gt;t&lt;/sub&gt;={y&lt;sub&gt;t&lt;/sub&gt;&lt;sup&gt;1&lt;/sup&gt;,y&lt;/b&gt;&lt;/span&gt;&lt;b style=&quot;font-size: 16px&quot;&gt;&lt;sub&gt;t&lt;/sub&gt;&lt;sup&gt;2&lt;/sup&gt;,&lt;/b&gt;&lt;b style=&quot;font-size: 16px&quot;&gt;y&lt;sub&gt;t&lt;/sub&gt;&lt;sup&gt;3&lt;/sup&gt;,...&lt;/b&gt;&lt;b style=&quot;font-size: 16px&quot;&gt;y&lt;sub&gt;t&lt;/sub&gt;&lt;sup&gt;M&lt;/sup&gt;} 1&amp;lt;=t&amp;lt;=T&amp;nbsp;&lt;/b&gt;&lt;span style=&quot;font-size: 16px&quot;&gt;&lt;b&gt;&lt;br&gt;&lt;/b&gt;&lt;/span&gt;" style="text;html=1;strokeColor=none;fillColor=none;align=center;verticalAlign=middle;whiteSpace=wrap;rounded=0;" parent="1" vertex="1">
          <mxGeometry x="1068" y="800" width="330" height="20" as="geometry" />
        </mxCell>
        <mxCell id="dSfoqlyD_KClIyD69JGR-289" value="" style="edgeStyle=none;rounded=0;orthogonalLoop=1;jettySize=auto;html=1;endArrow=classic;endFill=1;strokeColor=#000000;strokeWidth=2;fillColor=#FFFFFF;startArrow=classic;startFill=1;" parent="1" source="dSfoqlyD_KClIyD69JGR-290" target="dSfoqlyD_KClIyD69JGR-288" edge="1">
          <mxGeometry relative="1" as="geometry" />
        </mxCell>
        <mxCell id="dSfoqlyD_KClIyD69JGR-290" value="&lt;span style=&quot;font-size: 16px&quot;&gt;&lt;b&gt;Y&lt;sub&gt;t&lt;/sub&gt;&lt;sup&gt;True&lt;/sup&gt;={y&lt;sub&gt;t&lt;/sub&gt;&lt;sup&gt;1&lt;/sup&gt;,&lt;/b&gt;&lt;/span&gt;&lt;b style=&quot;font-size: 16px&quot;&gt;y&lt;sub&gt;t&lt;/sub&gt;&lt;sup&gt;2&lt;/sup&gt;,&lt;/b&gt;&lt;b style=&quot;font-size: 16px&quot;&gt;y&lt;sub&gt;t&lt;/sub&gt;&lt;sup&gt;3&lt;/sup&gt;,...&lt;/b&gt;&lt;b style=&quot;font-size: 16px&quot;&gt;y&lt;sub&gt;t&lt;/sub&gt;&lt;sup&gt;M&lt;/sup&gt;} 1&amp;lt;=t&amp;lt;=T&amp;nbsp;&lt;/b&gt;&lt;span style=&quot;font-size: 16px&quot;&gt;&lt;b&gt;&lt;br&gt;&lt;/b&gt;&lt;/span&gt;" style="text;html=1;strokeColor=none;fillColor=none;align=center;verticalAlign=middle;whiteSpace=wrap;rounded=0;" parent="1" vertex="1">
          <mxGeometry x="1068" y="860" width="330" height="20" as="geometry" />
        </mxCell>
        <mxCell id="dSfoqlyD_KClIyD69JGR-291" value="&lt;span style=&quot;font-size: 16px&quot;&gt;&lt;b&gt;RMSE/MAE&lt;/b&gt;&lt;/span&gt;" style="text;html=1;strokeColor=none;fillColor=none;align=center;verticalAlign=middle;whiteSpace=wrap;rounded=0;" parent="1" vertex="1">
          <mxGeometry x="1255" y="830" width="75" height="20" as="geometry" />
        </mxCell>
        <mxCell id="dSfoqlyD_KClIyD69JGR-292" style="edgeStyle=orthogonalEdgeStyle;rounded=0;orthogonalLoop=1;jettySize=auto;html=1;exitX=0;exitY=0.5;exitDx=0;exitDy=0;entryX=0.5;entryY=0;entryDx=0;entryDy=0;startArrow=none;startFill=0;endArrow=classic;endFill=1;strokeColor=#000000;strokeWidth=2;fillColor=#FFFFFF;" parent="1" source="dSfoqlyD_KClIyD69JGR-293" target="dSfoqlyD_KClIyD69JGR-5" edge="1">
          <mxGeometry relative="1" as="geometry" />
        </mxCell>
        <mxCell id="dSfoqlyD_KClIyD69JGR-293" value="" style="rounded=0;whiteSpace=wrap;html=1;strokeColor=#000000;strokeWidth=1;fillColor=none;" parent="1" vertex="1">
          <mxGeometry x="1100" y="790" width="260" height="100" as="geometry" />
        </mxCell>
        <mxCell id="dSfoqlyD_KClIyD69JGR-294" value="&lt;span style=&quot;font-size: 16px&quot;&gt;&lt;b&gt;反馈预测损失&lt;/b&gt;&lt;/span&gt;" style="text;html=1;strokeColor=none;fillColor=none;align=center;verticalAlign=middle;whiteSpace=wrap;rounded=0;" parent="1" vertex="1">
          <mxGeometry x="786" y="810" width="101.5" height="20" as="geometry" />
        </mxCell>
        <mxCell id="dSfoqlyD_KClIyD69JGR-295" value="&lt;span style=&quot;font-size: 16px&quot;&gt;&lt;b&gt;传递注意力层权重参数&lt;/b&gt;&lt;/span&gt;" style="text;html=1;strokeColor=none;fillColor=none;align=center;verticalAlign=middle;whiteSpace=wrap;rounded=0;" parent="1" vertex="1">
          <mxGeometry x="455" y="80" width="165" height="20" as="geometry" />
        </mxCell>
        <mxCell id="dSfoqlyD_KClIyD69JGR-296" value="&lt;b&gt;W&lt;sub&gt;k&lt;/sub&gt;&lt;sup&gt;B&lt;/sup&gt;&amp;nbsp;&lt;/b&gt;" style="text;html=1;strokeColor=none;fillColor=none;align=center;verticalAlign=middle;whiteSpace=wrap;rounded=0;strokeWidth=2;" parent="1" vertex="1">
          <mxGeometry x="679.5" y="637" width="40" height="20" as="geometry" />
        </mxCell>
        <mxCell id="dSfoqlyD_KClIyD69JGR-297" value="&lt;b style=&quot;font-size: 16px&quot;&gt;&lt;font color=&quot;#ff0000&quot;&gt;A&lt;/font&gt;&lt;/b&gt;" style="text;html=1;strokeColor=none;fillColor=none;align=center;verticalAlign=middle;whiteSpace=wrap;rounded=0;" parent="1" vertex="1">
          <mxGeometry x="72.5" y="387.5" width="85" height="20" as="geometry" />
        </mxCell>
        <mxCell id="dSfoqlyD_KClIyD69JGR-301" value="&lt;b style=&quot;font-size: 16px&quot;&gt;&lt;font color=&quot;#ff0000&quot;&gt;B&lt;/font&gt;&lt;/b&gt;" style="text;html=1;strokeColor=none;fillColor=none;align=center;verticalAlign=middle;whiteSpace=wrap;rounded=0;" parent="1" vertex="1">
          <mxGeometry x="67.5" y="685" width="85" height="20" as="geometry" />
        </mxCell>
        <mxCell id="dSfoqlyD_KClIyD69JGR-302" value="&lt;font color=&quot;#ff0000&quot;&gt;&lt;span style=&quot;font-size: 16px&quot;&gt;&lt;b&gt;C&lt;/b&gt;&lt;/span&gt;&lt;/font&gt;" style="text;html=1;strokeColor=none;fillColor=none;align=center;verticalAlign=middle;whiteSpace=wrap;rounded=0;" parent="1" vertex="1">
          <mxGeometry x="390" y="682" width="85" height="20" as="geometry" />
        </mxCell>
        <mxCell id="dSfoqlyD_KClIyD69JGR-303" value="&lt;font color=&quot;#ff0000&quot;&gt;&lt;span style=&quot;font-size: 16px&quot;&gt;&lt;b&gt;D&lt;/b&gt;&lt;/span&gt;&lt;/font&gt;" style="text;html=1;strokeColor=none;fillColor=none;align=center;verticalAlign=middle;whiteSpace=wrap;rounded=0;" parent="1" vertex="1">
          <mxGeometry x="392.5" y="387.5" width="85" height="20" as="geometry" />
        </mxCell>
      </root>
    </mxGraphModel>
  </diagram>
</mxfile>
